<?xml version="1.0" encoding="UTF-8"?><svg xmlns="http://www.w3.org/2000/svg" xmlns:xlink="http://www.w3.org/1999/xlink" fill-opacity="1" color-rendering="auto" color-interpolation="auto" text-rendering="auto" stroke="black" stroke-linecap="square" width="1180" stroke-miterlimit="10" shape-rendering="auto" stroke-opacity="1" fill="black" stroke-dasharray="none" font-weight="normal" stroke-width="1" height="778" font-family="'Dialog'" font-style="normal" stroke-linejoin="miter" font-size="12px" stroke-dashoffset="0" image-rendering="auto">
  <!--Generated by ySVG 2.5-->
  <defs id="genericDefs"/>
  <g>
    <defs id="defs1">
      <clipPath clipPathUnits="userSpaceOnUse" id="clipPath1">
        <path d="M0 0 L1180 0 L1180 778 L0 778 L0 0 Z"/>
      </clipPath>
      <clipPath clipPathUnits="userSpaceOnUse" id="clipPath2">
        <path d="M-391 10 L789 10 L789 788 L-391 788 L-391 10 Z"/>
      </clipPath>
    </defs>
    <g fill="white" text-rendering="geometricPrecision" shape-rendering="geometricPrecision" transform="translate(391,-10)" stroke="white">
      <rect x="-391" width="1180" height="778" y="10" clip-path="url(#clipPath2)" stroke="none"/>
    </g>
    <g fill="rgb(255,204,0)" text-rendering="geometricPrecision" shape-rendering="geometricPrecision" transform="matrix(1,0,0,1,391,-10)" stroke="rgb(255,204,0)">
      <path d="M85 122.25 L165 122.25 L165 162.25 L85 162.25 Z" stroke="none" clip-path="url(#clipPath2)"/>
    </g>
    <g text-rendering="geometricPrecision" stroke-miterlimit="1.45" shape-rendering="geometricPrecision" transform="matrix(1,0,0,1,391,-10)" stroke-linecap="butt">
      <path fill="none" d="M85 122.25 L165 122.25 L165 162.25 L85 162.25 Z" clip-path="url(#clipPath2)"/>
      <text x="105.9893" xml:space="preserve" y="146.6064" clip-path="url(#clipPath2)" font-family="'Arial'" stroke="none">Person</text>
    </g>
    <g text-rendering="geometricPrecision" stroke-miterlimit="1.45" shape-rendering="geometricPrecision" transform="matrix(1,0,0,1,391,-10)" stroke-linecap="butt">
      <ellipse rx="40" fill="none" ry="20" clip-path="url(#clipPath2)" cx="294.5" cy="112.25"/>
      <text x="281.1523" y="116.6064" clip-path="url(#clipPath2)" font-family="'Arial'" stroke="none" font-weight="bold" xml:space="preserve">csav</text>
      <line y2="118.9531" fill="none" x1="281.1523" clip-path="url(#clipPath2)" x2="307.8477" y1="118.9531"/>
    </g>
    <g text-rendering="geometricPrecision" stroke-miterlimit="1.45" shape-rendering="geometricPrecision" transform="matrix(1,0,0,1,391,-10)" stroke-linecap="butt">
      <ellipse rx="40" fill="none" ry="20" clip-path="url(#clipPath2)" cx="45" cy="72.25"/>
      <text x="19.3213" xml:space="preserve" y="76.6064" clip-path="url(#clipPath2)" font-family="'Arial'" stroke="none">password</text>
    </g>
    <g text-rendering="geometricPrecision" stroke-miterlimit="1.45" shape-rendering="geometricPrecision" transform="matrix(1,0,0,1,391,-10)" stroke-linecap="butt">
      <ellipse rx="40" fill="none" ry="20" clip-path="url(#clipPath2)" cx="-15.5" cy="112.25"/>
      <text x="-42.1807" xml:space="preserve" y="116.6064" clip-path="url(#clipPath2)" font-family="'Arial'" stroke="none">username</text>
    </g>
    <g text-rendering="geometricPrecision" stroke-miterlimit="1.45" shape-rendering="geometricPrecision" transform="matrix(1,0,0,1,391,-10)" stroke-linecap="butt">
      <ellipse rx="40" fill="none" ry="20" clip-path="url(#clipPath2)" cx="125" cy="45.25"/>
      <text x="100.3262" xml:space="preserve" y="49.6064" clip-path="url(#clipPath2)" font-family="'Arial'" stroke="none">firstName</text>
    </g>
    <g text-rendering="geometricPrecision" stroke-miterlimit="1.45" shape-rendering="geometricPrecision" transform="matrix(1,0,0,1,391,-10)" stroke-linecap="butt">
      <ellipse rx="40" fill="none" ry="20" clip-path="url(#clipPath2)" cx="214.5" cy="72.25"/>
      <text x="190.1543" xml:space="preserve" y="76.6064" clip-path="url(#clipPath2)" font-family="'Arial'" stroke="none">lastName</text>
    </g>
    <g fill="rgb(255,204,0)" text-rendering="geometricPrecision" shape-rendering="geometricPrecision" transform="matrix(1,0,0,1,391,-10)" stroke="rgb(255,204,0)">
      <path d="M591 123 L671 123 L671 163 L591 163 Z" stroke="none" clip-path="url(#clipPath2)"/>
    </g>
    <g text-rendering="geometricPrecision" stroke-miterlimit="1.45" shape-rendering="geometricPrecision" transform="matrix(1,0,0,1,391,-10)" stroke-linecap="butt">
      <path fill="none" d="M591 123 L671 123 L671 163 L591 163 Z" clip-path="url(#clipPath2)"/>
      <text x="614.3242" xml:space="preserve" y="147.3564" clip-path="url(#clipPath2)" font-family="'Arial'" stroke="none">Group</text>
    </g>
    <g fill="rgb(204,255,204)" text-rendering="geometricPrecision" shape-rendering="geometricPrecision" transform="matrix(1,0,0,1,391,-10)" stroke="rgb(204,255,204)">
      <path d="M374.5 115 L414.5 143 L374.5 171 L334.5 143 Z" stroke="none" clip-path="url(#clipPath2)"/>
    </g>
    <g text-rendering="geometricPrecision" stroke-miterlimit="1.45" shape-rendering="geometricPrecision" transform="matrix(1,0,0,1,391,-10)" stroke-linecap="butt">
      <path fill="none" d="M374.5 115 L414.5 143 L374.5 171 L334.5 143 Z" clip-path="url(#clipPath2)"/>
      <text x="364.8262" xml:space="preserve" y="147.3564" clip-path="url(#clipPath2)" font-family="'Arial'" stroke="none">has</text>
    </g>
    <g fill="rgb(255,204,0)" text-rendering="geometricPrecision" shape-rendering="geometricPrecision" transform="matrix(1,0,0,1,391,-10)" stroke="rgb(255,204,0)">
      <path d="M591 292 L671 292 L671 332 L591 332 Z" stroke="none" clip-path="url(#clipPath2)"/>
    </g>
    <g text-rendering="geometricPrecision" stroke-miterlimit="1.45" shape-rendering="geometricPrecision" transform="matrix(1,0,0,1,391,-10)" stroke-linecap="butt">
      <path fill="none" d="M591 292 L671 292 L671 332 L591 332 Z" clip-path="url(#clipPath2)"/>
      <text x="616.9932" xml:space="preserve" y="316.3564" clip-path="url(#clipPath2)" font-family="'Arial'" stroke="none">Right</text>
    </g>
    <g text-rendering="geometricPrecision" stroke-miterlimit="1.45" shape-rendering="geometricPrecision" transform="matrix(1,0,0,1,391,-10)" stroke-linecap="butt">
      <ellipse rx="40" fill="none" ry="20" clip-path="url(#clipPath2)" cx="576" cy="83"/>
      <text x="570.668" y="87.3564" clip-path="url(#clipPath2)" font-family="'Arial'" stroke="none" font-weight="bold" xml:space="preserve">id</text>
      <line y2="89.7031" fill="none" x1="570.668" clip-path="url(#clipPath2)" x2="581.332" y1="89.7031"/>
    </g>
    <g text-rendering="geometricPrecision" stroke-miterlimit="1.45" shape-rendering="geometricPrecision" transform="matrix(1,0,0,1,391,-10)" stroke-linecap="butt">
      <ellipse rx="40" fill="none" ry="20" clip-path="url(#clipPath2)" cx="631" cy="378.5"/>
      <text x="625.668" y="382.8564" clip-path="url(#clipPath2)" font-family="'Arial'" stroke="none" font-weight="bold" xml:space="preserve">id</text>
      <line y2="385.2031" fill="none" x1="625.668" clip-path="url(#clipPath2)" x2="636.332" y1="385.2031"/>
    </g>
    <g text-rendering="geometricPrecision" stroke-miterlimit="1.45" shape-rendering="geometricPrecision" transform="matrix(1,0,0,1,391,-10)" stroke-linecap="butt">
      <ellipse rx="40" fill="none" ry="20" clip-path="url(#clipPath2)" cx="521" cy="312"/>
      <text x="505.9912" xml:space="preserve" y="316.3564" clip-path="url(#clipPath2)" font-family="'Arial'" stroke="none">name</text>
    </g>
    <g fill="rgb(204,255,204)" text-rendering="geometricPrecision" shape-rendering="geometricPrecision" transform="matrix(1,0,0,1,391,-10)" stroke="rgb(204,255,204)">
      <path d="M631 204 L671 232 L631 260 L591 232 Z" stroke="none" clip-path="url(#clipPath2)"/>
    </g>
    <g text-rendering="geometricPrecision" stroke-miterlimit="1.45" shape-rendering="geometricPrecision" transform="matrix(1,0,0,1,391,-10)" stroke-linecap="butt">
      <path fill="none" d="M631 204 L671 232 L631 260 L591 232 Z" clip-path="url(#clipPath2)"/>
      <text x="621.3262" xml:space="preserve" y="236.3564" clip-path="url(#clipPath2)" font-family="'Arial'" stroke="none">has</text>
    </g>
    <g text-rendering="geometricPrecision" stroke-miterlimit="1.45" shape-rendering="geometricPrecision" transform="matrix(1,0,0,1,391,-10)" stroke-linecap="butt">
      <ellipse rx="40" fill="none" ry="20" clip-path="url(#clipPath2)" cx="686" cy="83"/>
      <text x="670.9912" xml:space="preserve" y="87.3564" clip-path="url(#clipPath2)" font-family="'Arial'" stroke="none">name</text>
    </g>
    <g fill="rgb(255,204,0)" text-rendering="geometricPrecision" shape-rendering="geometricPrecision" transform="matrix(1,0,0,1,391,-10)" stroke="rgb(255,204,0)">
      <path d="M85 497.25 L165 497.25 L165 537.25 L85 537.25 Z" stroke="none" clip-path="url(#clipPath2)"/>
    </g>
    <g text-rendering="geometricPrecision" stroke-miterlimit="1.45" shape-rendering="geometricPrecision" transform="matrix(1,0,0,1,391,-10)" stroke-linecap="butt">
      <path fill="none" d="M85 497.25 L165 497.25 L165 537.25 L85 537.25 Z" clip-path="url(#clipPath2)"/>
      <text x="96.3154" xml:space="preserve" y="521.6064" clip-path="url(#clipPath2)" font-family="'Arial'" stroke="none">Equipment</text>
    </g>
    <g fill="rgb(255,204,0)" text-rendering="geometricPrecision" shape-rendering="geometricPrecision" transform="matrix(1,0,0,1,391,-10)" stroke="rgb(255,204,0)">
      <path d="M-275 308.1875 L-166 308.1875 L-166 348.1875 L-275 348.1875 Z" stroke="none" clip-path="url(#clipPath2)"/>
    </g>
    <g text-rendering="geometricPrecision" stroke-miterlimit="1.45" shape-rendering="geometricPrecision" transform="matrix(1,0,0,1,391,-10)" stroke-linecap="butt">
      <path fill="none" d="M-275 308.1875 L-166 308.1875 L-166 348.1875 L-275 348.1875 Z" clip-path="url(#clipPath2)"/>
      <text x="-265.8604" xml:space="preserve" y="332.5439" clip-path="url(#clipPath2)" font-family="'Arial'" stroke="none">EquipmentGroup</text>
    </g>
    <g fill="rgb(204,255,204)" text-rendering="geometricPrecision" shape-rendering="geometricPrecision" transform="matrix(1,0,0,1,391,-10)" stroke="rgb(204,255,204)">
      <path d="M125 301.75 L165 329.75 L125 357.75 L85 329.75 Z" stroke="none" clip-path="url(#clipPath2)"/>
    </g>
    <g text-rendering="geometricPrecision" stroke-miterlimit="1.45" shape-rendering="geometricPrecision" transform="matrix(1,0,0,1,391,-10)" stroke-linecap="butt">
      <path fill="none" d="M125 301.75 L165 329.75 L125 357.75 L85 329.75 Z" clip-path="url(#clipPath2)"/>
      <text x="111.6611" xml:space="preserve" y="334.1064" clip-path="url(#clipPath2)" font-family="'Arial'" stroke="none">rents</text>
    </g>
    <g text-rendering="geometricPrecision" stroke-miterlimit="1.45" shape-rendering="geometricPrecision" transform="matrix(1,0,0,1,391,-10)" stroke-linecap="butt">
      <ellipse rx="40" fill="none" ry="20" clip-path="url(#clipPath2)" cx="175.125" cy="271"/>
      <text x="148.4414" xml:space="preserve" y="275.3564" clip-path="url(#clipPath2)" font-family="'Arial'" stroke="none">start_date</text>
    </g>
    <g text-rendering="geometricPrecision" stroke-miterlimit="1.45" shape-rendering="geometricPrecision" transform="matrix(1,0,0,1,391,-10)" stroke-linecap="butt">
      <ellipse rx="40" fill="none" ry="20" clip-path="url(#clipPath2)" cx="194.25" cy="376.25"/>
      <text x="169.2246" xml:space="preserve" y="380.6064" clip-path="url(#clipPath2)" font-family="'Arial'" stroke="none">end_date</text>
    </g>
    <g fill="rgb(255,204,0)" text-rendering="geometricPrecision" shape-rendering="geometricPrecision" transform="matrix(1,0,0,1,391,-10)" stroke="rgb(255,204,0)">
      <path d="M-265.1667 663 L-185.1667 663 L-185.1667 703 L-265.1667 703 Z" stroke="none" clip-path="url(#clipPath2)"/>
    </g>
    <g text-rendering="geometricPrecision" stroke-miterlimit="1.45" shape-rendering="geometricPrecision" transform="matrix(1,0,0,1,391,-10)" stroke-linecap="butt">
      <path fill="none" d="M-265.1667 663 L-185.1667 663 L-185.1667 703 L-265.1667 703 Z" clip-path="url(#clipPath2)"/>
      <rect fill="none" x="-262.1667" width="74" height="34" y="666" clip-path="url(#clipPath2)"/>
      <text x="-244.8454" xml:space="preserve" y="687.3564" clip-path="url(#clipPath2)" font-family="'Arial'" stroke="none">Manual</text>
    </g>
    <g fill="rgb(255,204,0)" text-rendering="geometricPrecision" shape-rendering="geometricPrecision" transform="matrix(1,0,0,1,391,-10)" stroke="rgb(255,204,0)">
      <path d="M-265.1667 497.25 L-185.1667 497.25 L-185.1667 537.25 L-265.1667 537.25 Z" stroke="none" clip-path="url(#clipPath2)"/>
    </g>
    <g text-rendering="geometricPrecision" stroke-miterlimit="1.45" shape-rendering="geometricPrecision" transform="matrix(1,0,0,1,391,-10)" stroke-linecap="butt">
      <path fill="none" d="M-265.1667 497.25 L-185.1667 497.25 L-185.1667 537.25 L-265.1667 537.25 Z" clip-path="url(#clipPath2)"/>
      <rect fill="none" x="-262.1667" width="74" height="34" y="500.25" clip-path="url(#clipPath2)"/>
      <text x="-254.1735" xml:space="preserve" y="521.6064" clip-path="url(#clipPath2)" font-family="'Arial'" stroke="none">Comments</text>
    </g>
    <g fill="rgb(204,255,204)" text-rendering="geometricPrecision" shape-rendering="geometricPrecision" transform="matrix(1,0,0,1,391,-10)" stroke="rgb(204,255,204)">
      <path d="M-40.5 485.75 L4.5 517.25 L-40.5 548.75 L-85.5 517.25 Z" stroke="none" clip-path="url(#clipPath2)"/>
    </g>
    <g text-rendering="geometricPrecision" stroke-miterlimit="1.45" shape-rendering="geometricPrecision" transform="matrix(1,0,0,1,391,-10)" stroke-linecap="butt">
      <path fill="none" d="M-40.5 485.75 L4.5 517.25 L-40.5 548.75 L-85.5 517.25 Z" clip-path="url(#clipPath2)"/>
      <path fill="none" d="M-40.5 489.412 L-0.7314 517.25 L-40.5 545.088 L-80.2686 517.25 Z" clip-path="url(#clipPath2)"/>
      <text x="-50.1738" xml:space="preserve" y="521.6064" clip-path="url(#clipPath2)" font-family="'Arial'" stroke="none">has</text>
    </g>
    <g fill="rgb(204,255,204)" text-rendering="geometricPrecision" shape-rendering="geometricPrecision" transform="matrix(1,0,0,1,391,-10)" stroke="rgb(204,255,204)">
      <path d="M-40.5 568.625 L4.5 600.125 L-40.5 631.625 L-85.5 600.125 Z" stroke="none" clip-path="url(#clipPath2)"/>
    </g>
    <g text-rendering="geometricPrecision" stroke-miterlimit="1.45" shape-rendering="geometricPrecision" transform="matrix(1,0,0,1,391,-10)" stroke-linecap="butt">
      <path fill="none" d="M-40.5 568.625 L4.5 600.125 L-40.5 631.625 L-85.5 600.125 Z" clip-path="url(#clipPath2)"/>
      <path fill="none" d="M-40.5 572.287 L-0.7314 600.125 L-40.5 627.963 L-80.2686 600.125 Z" clip-path="url(#clipPath2)"/>
      <text x="-50.1738" xml:space="preserve" y="604.4814" clip-path="url(#clipPath2)" font-family="'Arial'" stroke="none">has</text>
    </g>
    <g fill="rgb(204,255,204)" text-rendering="geometricPrecision" shape-rendering="geometricPrecision" transform="matrix(1,0,0,1,391,-10)" stroke="rgb(204,255,204)">
      <path d="M-40.5 399.75 L-0.5 427.75 L-40.5 455.75 L-80.5 427.75 Z" stroke="none" clip-path="url(#clipPath2)"/>
    </g>
    <g text-rendering="geometricPrecision" stroke-miterlimit="1.45" shape-rendering="geometricPrecision" transform="matrix(1,0,0,1,391,-10)" stroke-linecap="butt">
      <path fill="none" d="M-40.5 399.75 L-0.5 427.75 L-40.5 455.75 L-80.5 427.75 Z" clip-path="url(#clipPath2)"/>
      <text x="-68.8447" xml:space="preserve" y="432.1064" clip-path="url(#clipPath2)" font-family="'Arial'" stroke="none">consists of</text>
    </g>
    <g text-rendering="geometricPrecision" stroke-miterlimit="1.45" shape-rendering="geometricPrecision" transform="matrix(1,0,0,1,391,-10)" stroke-linecap="butt">
      <ellipse rx="40" fill="none" ry="20" clip-path="url(#clipPath2)" cx="225.25" cy="427.5"/>
      <text x="219.918" y="431.8564" clip-path="url(#clipPath2)" font-family="'Arial'" stroke="none" font-weight="bold" xml:space="preserve">id</text>
      <line y2="434.2031" fill="none" x1="219.918" clip-path="url(#clipPath2)" x2="230.582" y1="434.2031"/>
    </g>
    <g text-rendering="geometricPrecision" stroke-miterlimit="1.45" shape-rendering="geometricPrecision" transform="matrix(1,0,0,1,391,-10)" stroke-linecap="butt">
      <ellipse rx="40" fill="none" ry="20" clip-path="url(#clipPath2)" cx="-315" cy="288.1875"/>
      <text x="-320.332" y="292.5439" clip-path="url(#clipPath2)" font-family="'Arial'" stroke="none" font-weight="bold" xml:space="preserve">id</text>
      <line y2="294.8906" fill="none" x1="-320.332" clip-path="url(#clipPath2)" x2="-309.668" y1="294.8906"/>
    </g>
    <g text-rendering="geometricPrecision" stroke-miterlimit="1.45" shape-rendering="geometricPrecision" transform="matrix(1,0,0,1,391,-10)" stroke-linecap="butt">
      <ellipse rx="40" fill="none" ry="20" clip-path="url(#clipPath2)" cx="125" cy="600.125"/>
      <text x="109.9912" xml:space="preserve" y="604.4814" clip-path="url(#clipPath2)" font-family="'Arial'" stroke="none">name</text>
    </g>
    <g text-rendering="geometricPrecision" stroke-miterlimit="1.45" shape-rendering="geometricPrecision" transform="matrix(1,0,0,1,391,-10)" stroke-linecap="butt">
      <ellipse rx="40" fill="none" ry="20" clip-path="url(#clipPath2)" cx="240" cy="595"/>
      <text x="219.3193" xml:space="preserve" y="599.3564" clip-path="url(#clipPath2)" font-family="'Arial'" stroke="none">location</text>
    </g>
    <g text-rendering="geometricPrecision" stroke-miterlimit="1.45" shape-rendering="geometricPrecision" transform="matrix(1,0,0,1,391,-10)" stroke-linecap="butt">
      <ellipse rx="40" fill="none" ry="20" clip-path="url(#clipPath2)" cx="58.75" cy="407.75"/>
      <text x="32.7432" xml:space="preserve" y="412.1064" clip-path="url(#clipPath2)" font-family="'Arial'" stroke="none">max_time</text>
    </g>
    <g text-rendering="geometricPrecision" stroke-miterlimit="1.45" shape-rendering="geometricPrecision" transform="matrix(1,0,0,1,391,-10)" stroke-linecap="butt">
      <ellipse rx="40" fill="none" ry="20" clip-path="url(#clipPath2)" cx="285.5" cy="460.125"/>
      <text x="272.4922" xml:space="preserve" y="464.4814" clip-path="url(#clipPath2)" font-family="'Arial'" stroke="none">state</text>
    </g>
    <g text-rendering="geometricPrecision" stroke-miterlimit="1.45" shape-rendering="geometricPrecision" transform="matrix(1,0,0,1,391,-10)" stroke-linecap="butt">
      <ellipse rx="40" fill="none" ry="20" clip-path="url(#clipPath2)" cx="-277" cy="587.25"/>
      <text x="-282.332" y="591.6064" clip-path="url(#clipPath2)" font-family="'Arial'" stroke="none" font-weight="bold" xml:space="preserve">id</text>
      <line y2="593.9531" fill="none" x1="-282.332" clip-path="url(#clipPath2)" x2="-271.668" y1="593.9531"/>
    </g>
    <g text-rendering="geometricPrecision" stroke-miterlimit="1.45" shape-rendering="geometricPrecision" transform="matrix(1,0,0,1,391,-10)" stroke-linecap="butt">
      <ellipse rx="40" fill="none" ry="20" clip-path="url(#clipPath2)" cx="-324.8333" cy="505.75"/>
      <text x="-334.1703" xml:space="preserve" y="510.1064" clip-path="url(#clipPath2)" font-family="'Arial'" stroke="none">title</text>
    </g>
    <g text-rendering="geometricPrecision" stroke-miterlimit="1.45" shape-rendering="geometricPrecision" transform="matrix(1,0,0,1,391,-10)" stroke-linecap="butt">
      <ellipse rx="40" fill="none" ry="20" clip-path="url(#clipPath2)" cx="-256.75" cy="454"/>
      <text x="-276.4316" xml:space="preserve" y="458.3564" clip-path="url(#clipPath2)" font-family="'Arial'" stroke="none">content</text>
    </g>
    <g text-rendering="geometricPrecision" stroke-miterlimit="1.45" shape-rendering="geometricPrecision" transform="matrix(1,0,0,1,391,-10)" stroke-linecap="butt">
      <ellipse rx="40" fill="none" ry="20" clip-path="url(#clipPath2)" cx="-335.1667" cy="714.25"/>
      <text x="-340.4987" y="718.6064" clip-path="url(#clipPath2)" font-family="'Arial'" stroke="none" font-weight="bold" xml:space="preserve">id</text>
      <line y2="720.9531" fill="none" x1="-340.4987" clip-path="url(#clipPath2)" x2="-329.8346" y1="720.9531"/>
    </g>
    <g text-rendering="geometricPrecision" stroke-miterlimit="1.45" shape-rendering="geometricPrecision" transform="matrix(1,0,0,1,391,-10)" stroke-linecap="butt">
      <ellipse rx="40" fill="none" ry="20" clip-path="url(#clipPath2)" cx="-248.25" cy="753"/>
      <text x="-257.5869" xml:space="preserve" y="757.3564" clip-path="url(#clipPath2)" font-family="'Arial'" stroke="none">title</text>
    </g>
    <g text-rendering="geometricPrecision" stroke-miterlimit="1.45" shape-rendering="geometricPrecision" transform="matrix(1,0,0,1,391,-10)" stroke-linecap="butt">
      <ellipse rx="40" fill="none" ry="20" clip-path="url(#clipPath2)" cx="-138.2083" cy="729.875"/>
      <text x="-145.8783" xml:space="preserve" y="734.2314" clip-path="url(#clipPath2)" font-family="'Arial'" stroke="none">file</text>
    </g>
    <g text-rendering="geometricPrecision" stroke-miterlimit="1.45" shape-rendering="geometricPrecision" transform="matrix(1,0,0,1,391,-10)" stroke-linecap="butt">
      <ellipse rx="40" fill="none" ry="20" clip-path="url(#clipPath2)" cx="-315" cy="368.1875"/>
      <text x="-330.0088" xml:space="preserve" y="372.5439" clip-path="url(#clipPath2)" font-family="'Arial'" stroke="none">name</text>
    </g>
    <g fill="rgb(204,255,204)" text-rendering="geometricPrecision" shape-rendering="geometricPrecision" transform="matrix(1,0,0,1,391,-10)" stroke="rgb(204,255,204)">
      <path d="M-40.5 204 L-0.5 232 L-40.5 260 L-80.5 232 Z" stroke="none" clip-path="url(#clipPath2)"/>
    </g>
    <g text-rendering="geometricPrecision" stroke-miterlimit="1.45" shape-rendering="geometricPrecision" transform="matrix(1,0,0,1,391,-10)" stroke-linecap="butt">
      <path fill="none" d="M-40.5 204 L-0.5 232 L-40.5 260 L-80.5 232 Z" clip-path="url(#clipPath2)"/>
      <text x="-60.1758" xml:space="preserve" y="236.3564" clip-path="url(#clipPath2)" font-family="'Arial'" stroke="none">creates</text>
    </g>
    <g fill="rgb(255,204,0)" text-rendering="geometricPrecision" shape-rendering="geometricPrecision" transform="matrix(1,0,0,1,391,-10)" stroke="rgb(255,204,0)">
      <path d="M588.5 499.75 L678.5 499.75 L678.5 539.75 L588.5 539.75 Z" stroke="none" clip-path="url(#clipPath2)"/>
    </g>
    <g text-rendering="geometricPrecision" stroke-miterlimit="1.45" shape-rendering="geometricPrecision" transform="matrix(1,0,0,1,391,-10)" stroke-linecap="butt">
      <path fill="none" d="M588.5 499.75 L678.5 499.75 L678.5 539.75 L588.5 539.75 Z" clip-path="url(#clipPath2)"/>
      <text x="594.8105" xml:space="preserve" y="524.1064" clip-path="url(#clipPath2)" font-family="'Arial'" stroke="none">OpeningHours</text>
    </g>
    <g text-rendering="geometricPrecision" stroke-miterlimit="1.45" shape-rendering="geometricPrecision" transform="matrix(1,0,0,1,391,-10)" stroke-linecap="butt">
      <ellipse rx="40" fill="none" ry="20" clip-path="url(#clipPath2)" cx="633.5" cy="445"/>
      <text x="628.168" y="449.3564" clip-path="url(#clipPath2)" font-family="'Arial'" stroke="none" font-weight="bold" xml:space="preserve">id</text>
      <line y2="451.7031" fill="none" x1="628.168" clip-path="url(#clipPath2)" x2="638.832" y1="451.7031"/>
    </g>
    <g fill="rgb(255,204,0)" text-rendering="geometricPrecision" shape-rendering="geometricPrecision" transform="matrix(1,0,0,1,391,-10)" stroke="rgb(255,204,0)">
      <path d="M334.5 499.75 L414.5 499.75 L414.5 539.75 L334.5 539.75 Z" stroke="none" clip-path="url(#clipPath2)"/>
    </g>
    <g text-rendering="geometricPrecision" stroke-miterlimit="1.45" shape-rendering="geometricPrecision" transform="matrix(1,0,0,1,391,-10)" stroke-linecap="butt">
      <path fill="none" d="M334.5 499.75 L414.5 499.75 L414.5 539.75 L334.5 539.75 Z" clip-path="url(#clipPath2)"/>
      <text x="359.4912" xml:space="preserve" y="524.1064" clip-path="url(#clipPath2)" font-family="'Arial'" stroke="none">Place</text>
    </g>
    <g fill="rgb(204,255,204)" text-rendering="geometricPrecision" shape-rendering="geometricPrecision" transform="matrix(1,0,0,1,391,-10)" stroke="rgb(204,255,204)">
      <path d="M264.5 489 L304.5 517 L264.5 545 L224.5 517 Z" stroke="none" clip-path="url(#clipPath2)"/>
    </g>
    <g text-rendering="geometricPrecision" stroke-miterlimit="1.45" shape-rendering="geometricPrecision" transform="matrix(1,0,0,1,391,-10)" stroke-linecap="butt">
      <path fill="none" d="M264.5 489 L304.5 517 L264.5 545 L224.5 517 Z" clip-path="url(#clipPath2)"/>
      <text x="253.4961" xml:space="preserve" y="521.3564" clip-path="url(#clipPath2)" font-family="'Arial'" stroke="none">is at</text>
    </g>
    <g fill="rgb(204,255,204)" text-rendering="geometricPrecision" shape-rendering="geometricPrecision" transform="matrix(1,0,0,1,391,-10)" stroke="rgb(204,255,204)">
      <path d="M508.25 491.75 L548.25 519.75 L508.25 547.75 L468.25 519.75 Z" stroke="none" clip-path="url(#clipPath2)"/>
    </g>
    <g text-rendering="geometricPrecision" stroke-miterlimit="1.45" shape-rendering="geometricPrecision" transform="matrix(1,0,0,1,391,-10)" stroke-linecap="butt">
      <path fill="none" d="M508.25 491.75 L548.25 519.75 L508.25 547.75 L468.25 519.75 Z" clip-path="url(#clipPath2)"/>
      <text x="498.5762" xml:space="preserve" y="524.1064" clip-path="url(#clipPath2)" font-family="'Arial'" stroke="none">has</text>
    </g>
    <g fill="rgb(204,255,204)" text-rendering="geometricPrecision" shape-rendering="geometricPrecision" transform="matrix(1,0,0,1,391,-10)" stroke="rgb(204,255,204)">
      <path d="M508.25 573.375 L548.25 601.375 L508.25 629.375 L468.25 601.375 Z" stroke="none" clip-path="url(#clipPath2)"/>
    </g>
    <g text-rendering="geometricPrecision" stroke-miterlimit="1.45" shape-rendering="geometricPrecision" transform="matrix(1,0,0,1,391,-10)" stroke-linecap="butt">
      <path fill="none" d="M508.25 573.375 L548.25 601.375 L508.25 629.375 L468.25 601.375 Z" clip-path="url(#clipPath2)"/>
      <text x="498.5762" xml:space="preserve" y="605.7314" clip-path="url(#clipPath2)" font-family="'Arial'" stroke="none">has</text>
    </g>
    <g fill="rgb(255,204,0)" text-rendering="geometricPrecision" shape-rendering="geometricPrecision" transform="matrix(1,0,0,1,391,-10)" stroke="rgb(255,204,0)">
      <path d="M334.5 663 L414.5 663 L414.5 703 L334.5 703 Z" stroke="none" clip-path="url(#clipPath2)"/>
    </g>
    <g text-rendering="geometricPrecision" stroke-miterlimit="1.45" shape-rendering="geometricPrecision" transform="matrix(1,0,0,1,391,-10)" stroke-linecap="butt">
      <path fill="none" d="M334.5 663 L414.5 663 L414.5 703 L334.5 703 Z" clip-path="url(#clipPath2)"/>
      <rect fill="none" x="337.5" width="74" height="34" y="666" clip-path="url(#clipPath2)"/>
      <text x="363.8301" xml:space="preserve" y="687.3564" clip-path="url(#clipPath2)" font-family="'Arial'" stroke="none">Day</text>
    </g>
    <g text-rendering="geometricPrecision" stroke-miterlimit="1.45" shape-rendering="geometricPrecision" transform="matrix(1,0,0,1,391,-10)" stroke-linecap="butt">
      <ellipse rx="40" fill="none" ry="20" clip-path="url(#clipPath2)" cx="374.5" cy="744"/>
      <text x="369.168" y="748.3564" clip-path="url(#clipPath2)" font-family="'Arial'" stroke="none" font-weight="bold" xml:space="preserve">id</text>
      <line y2="750.7031" fill="none" x1="369.168" clip-path="url(#clipPath2)" x2="379.832" y1="750.7031"/>
    </g>
    <g text-rendering="geometricPrecision" stroke-miterlimit="1.45" shape-rendering="geometricPrecision" transform="matrix(1,0,0,1,391,-10)" stroke-linecap="butt">
      <ellipse rx="40" fill="none" ry="20" clip-path="url(#clipPath2)" cx="45" cy="753"/>
      <text x="33.3311" xml:space="preserve" y="757.3564" clip-path="url(#clipPath2)" font-family="'Arial'" stroke="none">start</text>
    </g>
    <g text-rendering="geometricPrecision" stroke-miterlimit="1.45" shape-rendering="geometricPrecision" transform="matrix(1,0,0,1,391,-10)" stroke-linecap="butt">
      <ellipse rx="40" fill="none" ry="20" clip-path="url(#clipPath2)" cx="181" cy="753"/>
      <text x="170.9893" xml:space="preserve" y="757.3564" clip-path="url(#clipPath2)" font-family="'Arial'" stroke="none">end</text>
    </g>
    <g fill="rgb(204,255,204)" text-rendering="geometricPrecision" shape-rendering="geometricPrecision" transform="matrix(1,0,0,1,391,-10)" stroke="rgb(204,255,204)">
      <path d="M633.5 573.375 L673.5 601.375 L633.5 629.375 L593.5 601.375 Z" stroke="none" clip-path="url(#clipPath2)"/>
    </g>
    <g text-rendering="geometricPrecision" stroke-miterlimit="1.45" shape-rendering="geometricPrecision" transform="matrix(1,0,0,1,391,-10)" stroke-linecap="butt">
      <path fill="none" d="M633.5 573.375 L673.5 601.375 L633.5 629.375 L593.5 601.375 Z" clip-path="url(#clipPath2)"/>
      <text x="623.8262" xml:space="preserve" y="605.7314" clip-path="url(#clipPath2)" font-family="'Arial'" stroke="none">has</text>
    </g>
    <g fill="rgb(255,204,0)" text-rendering="geometricPrecision" shape-rendering="geometricPrecision" transform="matrix(1,0,0,1,391,-10)" stroke="rgb(255,204,0)">
      <path d="M593.5 663 L673.5 663 L673.5 703 L593.5 703 Z" stroke="none" clip-path="url(#clipPath2)"/>
    </g>
    <g text-rendering="geometricPrecision" stroke-miterlimit="1.45" shape-rendering="geometricPrecision" transform="matrix(1,0,0,1,391,-10)" stroke-linecap="butt">
      <path fill="none" d="M593.5 663 L673.5 663 L673.5 703 L593.5 703 Z" clip-path="url(#clipPath2)"/>
      <rect fill="none" x="596.5" width="74" height="34" y="666" clip-path="url(#clipPath2)"/>
      <text x="613.4902" xml:space="preserve" y="687.3564" clip-path="url(#clipPath2)" font-family="'Arial'" stroke="none">Holiday</text>
    </g>
    <g text-rendering="geometricPrecision" stroke-miterlimit="1.45" shape-rendering="geometricPrecision" transform="matrix(1,0,0,1,391,-10)" stroke-linecap="butt">
      <ellipse rx="40" fill="none" ry="20" clip-path="url(#clipPath2)" cx="576" cy="729.875"/>
      <text x="570.668" y="734.2314" clip-path="url(#clipPath2)" font-family="'Arial'" stroke="none" font-weight="bold" xml:space="preserve">id</text>
      <line y2="736.5781" fill="none" x1="570.668" clip-path="url(#clipPath2)" x2="581.332" y1="736.5781"/>
    </g>
    <g text-rendering="geometricPrecision" stroke-miterlimit="1.45" shape-rendering="geometricPrecision" transform="matrix(1,0,0,1,391,-10)" stroke-linecap="butt">
      <ellipse rx="40" fill="none" ry="20" clip-path="url(#clipPath2)" cx="686" cy="753"/>
      <text x="659.3164" xml:space="preserve" y="757.3564" clip-path="url(#clipPath2)" font-family="'Arial'" stroke="none">start_date</text>
    </g>
    <g text-rendering="geometricPrecision" stroke-miterlimit="1.45" shape-rendering="geometricPrecision" transform="matrix(1,0,0,1,391,-10)" stroke-linecap="butt">
      <ellipse rx="40" fill="none" ry="20" clip-path="url(#clipPath2)" cx="733.5" cy="706.75"/>
      <text x="708.4746" xml:space="preserve" y="711.1064" clip-path="url(#clipPath2)" font-family="'Arial'" stroke="none">end_date</text>
    </g>
    <g text-rendering="geometricPrecision" stroke-miterlimit="1.45" shape-rendering="geometricPrecision" transform="matrix(1,0,0,1,391,-10)" stroke-linecap="butt">
      <ellipse rx="40" fill="none" ry="20" clip-path="url(#clipPath2)" cx="374.5" cy="445"/>
      <text x="369.168" y="449.3564" clip-path="url(#clipPath2)" font-family="'Arial'" stroke="none" font-weight="bold" xml:space="preserve">id</text>
      <line y2="451.7031" fill="none" x1="369.168" clip-path="url(#clipPath2)" x2="379.832" y1="451.7031"/>
    </g>
    <g text-rendering="geometricPrecision" stroke-miterlimit="1.45" shape-rendering="geometricPrecision" transform="matrix(1,0,0,1,391,-10)" stroke-linecap="butt">
      <ellipse rx="40" fill="none" ry="20" clip-path="url(#clipPath2)" cx="373.5" cy="597.75"/>
      <text x="358.4912" xml:space="preserve" y="602.1064" clip-path="url(#clipPath2)" font-family="'Arial'" stroke="none">name</text>
    </g>
    <g fill="rgb(204,255,204)" text-rendering="geometricPrecision" shape-rendering="geometricPrecision" transform="matrix(1,0,0,1,391,-10)" stroke="rgb(204,255,204)">
      <path d="M266 651.5 L311 683 L266 714.5 L221 683 Z" stroke="none" clip-path="url(#clipPath2)"/>
    </g>
    <g text-rendering="geometricPrecision" stroke-miterlimit="1.45" shape-rendering="geometricPrecision" transform="matrix(1,0,0,1,391,-10)" stroke-linecap="butt">
      <path fill="none" d="M266 651.5 L311 683 L266 714.5 L221 683 Z" clip-path="url(#clipPath2)"/>
      <path fill="none" d="M266 655.162 L305.7686 683 L266 710.838 L226.2314 683 Z" clip-path="url(#clipPath2)"/>
      <text x="256.3262" xml:space="preserve" y="687.3564" clip-path="url(#clipPath2)" font-family="'Arial'" stroke="none">has</text>
    </g>
    <g fill="rgb(255,204,0)" text-rendering="geometricPrecision" shape-rendering="geometricPrecision" transform="matrix(1,0,0,1,391,-10)" stroke="rgb(255,204,0)">
      <path d="M85 663 L165 663 L165 703 L85 703 Z" stroke="none" clip-path="url(#clipPath2)"/>
    </g>
    <g text-rendering="geometricPrecision" stroke-miterlimit="1.45" shape-rendering="geometricPrecision" transform="matrix(1,0,0,1,391,-10)" stroke-linecap="butt">
      <path fill="none" d="M85 663 L165 663 L165 703 L85 703 Z" clip-path="url(#clipPath2)"/>
      <rect fill="none" x="88" width="74" height="34" y="666" clip-path="url(#clipPath2)"/>
      <text x="92.9785" xml:space="preserve" y="687.3564" clip-path="url(#clipPath2)" font-family="'Arial'" stroke="none">OpenPeriod</text>
    </g>
    <g fill="rgb(204,255,204)" text-rendering="geometricPrecision" shape-rendering="geometricPrecision" transform="matrix(1,0,0,1,391,-10)" stroke="rgb(204,255,204)">
      <path d="M-218.2083 114.25 L-178.2083 142.25 L-218.2083 170.25 L-258.2083 142.25 Z" stroke="none" clip-path="url(#clipPath2)"/>
    </g>
    <g text-rendering="geometricPrecision" stroke-miterlimit="1.45" shape-rendering="geometricPrecision" transform="matrix(1,0,0,1,391,-10)" stroke-linecap="butt">
      <path fill="none" d="M-218.2083 114.25 L-178.2083 142.25 L-218.2083 170.25 L-258.2083 142.25 Z" clip-path="url(#clipPath2)"/>
      <text x="-231.5472" xml:space="preserve" y="146.6064" clip-path="url(#clipPath2)" font-family="'Arial'" stroke="none">rents</text>
    </g>
    <g text-rendering="geometricPrecision" stroke-miterlimit="1.45" shape-rendering="geometricPrecision" transform="matrix(1,0,0,1,391,-10)" stroke-linecap="butt">
      <ellipse rx="40" fill="none" ry="20" clip-path="url(#clipPath2)" cx="-298.2083" cy="167.75"/>
      <text x="-324.8919" xml:space="preserve" y="172.1064" clip-path="url(#clipPath2)" font-family="'Arial'" stroke="none">start_date</text>
    </g>
    <g text-rendering="geometricPrecision" stroke-miterlimit="1.45" shape-rendering="geometricPrecision" transform="matrix(1,0,0,1,391,-10)" stroke-linecap="butt">
      <ellipse rx="40" fill="none" ry="20" clip-path="url(#clipPath2)" cx="-263.3333" cy="87.625"/>
      <text x="-288.3587" xml:space="preserve" y="91.9814" clip-path="url(#clipPath2)" font-family="'Arial'" stroke="none">end_date</text>
    </g>
    <g text-rendering="geometricPrecision" stroke-miterlimit="1.45" shape-rendering="geometricPrecision" transform="matrix(1,0,0,1,391,-10)" stroke-linecap="butt">
      <path fill="none" d="M165.0162 135.1675 L256.7866 118.9249" clip-path="url(#clipPath2)"/>
    </g>
    <g text-rendering="geometricPrecision" stroke-miterlimit="1.45" shape-rendering="geometricPrecision" transform="matrix(1,0,0,1,391,-10)" stroke-linecap="butt">
      <path fill="none" d="M64.8633 89.6304 L102.1257 122.235" clip-path="url(#clipPath2)"/>
      <path fill="none" d="M21.3058 120.1089 L84.9754 133.7038" clip-path="url(#clipPath2)"/>
      <path fill="none" d="M125 122.2153 L125 65.2805" clip-path="url(#clipPath2)"/>
      <path fill="none" d="M150.587 122.2378 L192.9356 89.116" clip-path="url(#clipPath2)"/>
      <path fill="none" d="M164.9894 142.3702 L334.6797 142.8803" clip-path="url(#clipPath2)"/>
      <text x="237.4131" xml:space="preserve" y="177.339" clip-path="url(#clipPath2)" font-family="sans-serif" stroke="none">(1,1)</text>
      <path fill="none" d="M414.4842 143 L591.0112 143" clip-path="url(#clipPath2)"/>
      <text x="491.415" xml:space="preserve" y="177.7139" clip-path="url(#clipPath2)" font-family="sans-serif" stroke="none">(0,*)</text>
      <path fill="none" d="M592.6772 101.1934 L612.6807 123.0153" clip-path="url(#clipPath2)"/>
      <path fill="none" d="M631 358.5305 L631 332.039" clip-path="url(#clipPath2)"/>
      <path fill="none" d="M560.9878 312 L590.9686 312" clip-path="url(#clipPath2)"/>
      <path fill="none" d="M631 163.0337 L631 204.0161" clip-path="url(#clipPath2)"/>
      <text x="589.665" xml:space="preserve" y="188.2139" clip-path="url(#clipPath2)" font-family="sans-serif" stroke="none">(0,*)</text>
      <path fill="none" d="M631 291.9609 L631 260.0189" clip-path="url(#clipPath2)"/>
      <text x="649.665" xml:space="preserve" y="280.7139" clip-path="url(#clipPath2)" font-family="sans-serif" stroke="none">(0,*)</text>
      <path fill="none" d="M649.3423 122.9902 L669.3358 101.1792" clip-path="url(#clipPath2)"/>
      <path fill="none" d="M125 162.2543 L125 301.7386" clip-path="url(#clipPath2)"/>
      <text x="83.665" xml:space="preserve" y="236.7139" clip-path="url(#clipPath2)" font-family="sans-serif" stroke="none">(0,*)</text>
      <path fill="none" d="M125 497.2457 L125 357.7614" clip-path="url(#clipPath2)"/>
      <text x="143.665" xml:space="preserve" y="432.2139" clip-path="url(#clipPath2)" font-family="sans-serif" stroke="none">(0,*)</text>
      <path fill="none" d="M139.9543 312.2225 L159.4459 289.377" clip-path="url(#clipPath2)"/>
      <path fill="none" d="M145.3895 343.4412 L170.3685 360.2141" clip-path="url(#clipPath2)"/>
      <path fill="none" d="M-185.1766 517.25 L-85.5348 517.25" clip-path="url(#clipPath2)"/>
      <text x="-147.6702" xml:space="preserve" y="551.9639" clip-path="url(#clipPath2)" font-family="sans-serif" stroke="none">(1,1)</text>
      <path fill="none" d="M4.4711 517.25 L85.0101 517.25" clip-path="url(#clipPath2)"/>
      <text x="32.4131" xml:space="preserve" y="551.9639" clip-path="url(#clipPath2)" font-family="sans-serif" stroke="none">(0,8)</text>
      <path fill="none" d="M-185.1766 665.0532 L-67.9448 612.4417" clip-path="url(#clipPath2)"/>
      <text x="-131.8602" xml:space="preserve" y="673.1857" clip-path="url(#clipPath2)" font-family="sans-serif" stroke="none">(1,1)</text>
      <path fill="none" d="M-14.277 586.9937 L85.0463 537.257" clip-path="url(#clipPath2)"/>
      <text x="49.329" xml:space="preserve" y="587.7316" clip-path="url(#clipPath2)" font-family="sans-serif" stroke="none">(0,*)</text>
      <path fill="none" d="M88.0292 497.2567 L-17.9384 439.951" clip-path="url(#clipPath2)"/>
      <text x="48.7262" xml:space="preserve" y="452.7401" clip-path="url(#clipPath2)" font-family="sans-serif" stroke="none">(0,*)</text>
      <path fill="none" d="M-62.8462 415.3898 L-184.3582 348.1784" clip-path="url(#clipPath2)"/>
      <text x="-118.1572" xml:space="preserve" y="361.4959" clip-path="url(#clipPath2)" font-family="sans-serif" stroke="none">(2,*)</text>
      <path fill="none" d="M147.3458 497.2447 L205.7549 444.9532" clip-path="url(#clipPath2)"/>
      <path fill="none" d="M-284.4767 301.1074 L-267.764 308.1815" clip-path="url(#clipPath2)"/>
      <path fill="none" d="M125 537.2808 L125 580.1487" clip-path="url(#clipPath2)"/>
      <path fill="none" d="M216.2195 578.9223 L154.5973 537.2604" clip-path="url(#clipPath2)"/>
      <path fill="none" d="M70.347 426.9178 L112.8979 497.2473" clip-path="url(#clipPath2)"/>
      <path fill="none" d="M252.9376 471.7146 L165.0117 503.0091" clip-path="url(#clipPath2)"/>
      <path fill="none" d="M-263.1052 568.4854 L-239.9679 537.2388" clip-path="url(#clipPath2)"/>
      <path fill="none" d="M-285.8524 510.2478 L-265.1398 512.6377" clip-path="url(#clipPath2)"/>
      <path fill="none" d="M-235.1444 497.2682 L-247.0655 473.3946" clip-path="url(#clipPath2)"/>
      <path fill="none" d="M-300.3888 704.3699 L-265.1652 694.3632" clip-path="url(#clipPath2)"/>
      <path fill="none" d="M-241.7465 733.2783 L-231.7646 703.0082" clip-path="url(#clipPath2)"/>
      <path fill="none" d="M-165.4253 715.2037 L-188.0908 702.9858" clip-path="url(#clipPath2)"/>
      <path fill="none" d="M-284.4767 355.2676 L-267.764 348.1935" clip-path="url(#clipPath2)"/>
      <path fill="none" d="M-183.1025 308.2032 L-63.1646 244.1114" clip-path="url(#clipPath2)"/>
      <text x="-118.8489" xml:space="preserve" y="306.0038" clip-path="url(#clipPath2)" font-family="sans-serif" stroke="none">(1,1)</text>
      <path fill="none" d="M-17.9943 219.7952 L88.0994 162.2611" clip-path="url(#clipPath2)"/>
      <text x="48.7931" xml:space="preserve" y="216.271" clip-path="url(#clipPath2)" font-family="sans-serif" stroke="none">(0,*)</text>
      <path fill="none" d="M633.5 464.965 L633.5 499.7674" clip-path="url(#clipPath2)"/>
      <path fill="none" d="M165.0177 517.1783 L224.6196 517.0715" clip-path="url(#clipPath2)"/>
      <text x="182.4131" xml:space="preserve" y="551.8389" clip-path="url(#clipPath2)" font-family="sans-serif" stroke="none">(1,1)</text>
      <path fill="none" d="M303.145 517.9661 L334.4673 518.7492" clip-path="url(#clipPath2)"/>
      <text x="307.9151" xml:space="preserve" y="553.092" clip-path="url(#clipPath2)" font-family="sans-serif" stroke="none">(0,*)</text>
      <path fill="none" d="M414.5009 519.75 L468.2876 519.75" clip-path="url(#clipPath2)"/>
      <text x="429.0381" xml:space="preserve" y="554.4639" clip-path="url(#clipPath2)" font-family="sans-serif" stroke="none">(1,1)</text>
      <path fill="none" d="M548.2774 519.75 L588.5168 519.75" clip-path="url(#clipPath2)"/>
      <text x="555.25" xml:space="preserve" y="494.4639" clip-path="url(#clipPath2)" font-family="sans-serif" stroke="none">(1,1)</text>
      <path fill="none" d="M602.8297 539.7378 L528.9624 587.8768" clip-path="url(#clipPath2)"/>
      <text x="581.0518" xml:space="preserve" y="586.4126" clip-path="url(#clipPath2)" font-family="sans-serif" stroke="none">(7,7)</text>
      <path fill="none" d="M407.2518 663.0122 L486.8717 614.4218" clip-path="url(#clipPath2)"/>
      <text x="446.5205" xml:space="preserve" y="671.3776" clip-path="url(#clipPath2)" font-family="sans-serif" stroke="none">(1,1)</text>
      <path fill="none" d="M374.5 702.9858 L374.5 724.0136" clip-path="url(#clipPath2)"/>
      <path fill="none" d="M633.5 539.7178 L633.5 573.3463" clip-path="url(#clipPath2)"/>
      <text x="652.165" xml:space="preserve" y="561.2764" clip-path="url(#clipPath2)" font-family="sans-serif" stroke="none">(0,*)</text>
      <path fill="none" d="M633.5 629.3937 L633.5 662.9762" clip-path="url(#clipPath2)"/>
      <text x="591.1631" xml:space="preserve" y="650.9014" clip-path="url(#clipPath2)" font-family="sans-serif" stroke="none">(1,1)</text>
      <path fill="none" d="M596.9167 712.8233 L608.9564 703.0084" clip-path="url(#clipPath2)"/>
      <path fill="none" d="M671.9778 734.3037 L648.5116 703.0154" clip-path="url(#clipPath2)"/>
      <path fill="none" d="M673.5146 692.5035 L697.3857 698.1729" clip-path="url(#clipPath2)"/>
      <path fill="none" d="M374.5 499.785 L374.5 464.9826" clip-path="url(#clipPath2)"/>
      <path fill="none" d="M374.2437 539.7451 L373.7567 577.7258" clip-path="url(#clipPath2)"/>
      <path fill="none" d="M334.4747 683 L310.97 683" clip-path="url(#clipPath2)"/>
      <text x="310.915" xml:space="preserve" y="657.7139" clip-path="url(#clipPath2)" font-family="sans-serif" stroke="none">(0,*)</text>
      <path fill="none" d="M221.0081 683 L164.9877 683" clip-path="url(#clipPath2)"/>
      <text x="180.6631" xml:space="preserve" y="657.7139" clip-path="url(#clipPath2)" font-family="sans-serif" stroke="none">(1,1)</text>
      <path fill="none" d="M89.6572 702.9698 L61.2885 734.7517" clip-path="url(#clipPath2)"/>
      <path fill="none" d="M140.9961 702.9951 L166.1353 734.4191" clip-path="url(#clipPath2)"/>
      <path fill="none" d="M-220.2533 308.1683 L-218.5503 169.9976" clip-path="url(#clipPath2)"/>
      <text x="-201.7381" xml:space="preserve" y="243.9326" clip-path="url(#clipPath2)" font-family="sans-serif" stroke="none">(0,1)</text>
      <path fill="none" d="M-178.1981 142.25 L84.9906 142.25" clip-path="url(#clipPath2)"/>
      <text x="-57.9391" xml:space="preserve" y="176.9639" clip-path="url(#clipPath2)" font-family="sans-serif" stroke="none">(0,*)</text>
      <path fill="none" d="M-245.6693 151.0032 L-264.4735 156.997" clip-path="url(#clipPath2)"/>
      <path fill="none" d="M-232.8607 124.5129 L-248.0673 106.105" clip-path="url(#clipPath2)"/>
    </g>
  </g>
</svg>
