<?xml version="1.0" encoding="UTF-8"?><svg xmlns="http://www.w3.org/2000/svg" xmlns:xlink="http://www.w3.org/1999/xlink" fill-opacity="1" color-rendering="auto" color-interpolation="auto" text-rendering="auto" stroke="black" stroke-linecap="square" width="1169" stroke-miterlimit="10" shape-rendering="auto" stroke-opacity="1" fill="black" stroke-dasharray="none" font-weight="normal" stroke-width="1" height="790" font-family="'Dialog'" font-style="normal" stroke-linejoin="miter" font-size="12px" stroke-dashoffset="0" image-rendering="auto">
  <!--Generated by ySVG 2.5-->
  <defs id="genericDefs"/>
  <g>
    <defs id="defs1">
      <clipPath clipPathUnits="userSpaceOnUse" id="clipPath1">
        <path d="M0 0 L1169 0 L1169 790 L0 790 L0 0 Z"/>
      </clipPath>
      <clipPath clipPathUnits="userSpaceOnUse" id="clipPath2">
        <path d="M-380 -2 L789 -2 L789 788 L-380 788 L-380 -2 Z"/>
      </clipPath>
    </defs>
    <g fill="white" text-rendering="geometricPrecision" shape-rendering="geometricPrecision" transform="translate(380,2)" stroke="white">
      <rect x="-380" width="1169" height="790" y="-2" clip-path="url(#clipPath2)" stroke="none"/>
    </g>
    <g fill="rgb(255,204,0)" text-rendering="geometricPrecision" shape-rendering="geometricPrecision" transform="matrix(1,0,0,1,380,2)" stroke="rgb(255,204,0)">
      <path d="M85 122.25 L165 122.25 L165 162.25 L85 162.25 Z" stroke="none" clip-path="url(#clipPath2)"/>
    </g>
    <g text-rendering="geometricPrecision" stroke-miterlimit="1.45" shape-rendering="geometricPrecision" transform="matrix(1,0,0,1,380,2)" stroke-linecap="butt">
      <path fill="none" d="M85 122.25 L165 122.25 L165 162.25 L85 162.25 Z" clip-path="url(#clipPath2)"/>
      <text x="105.9893" xml:space="preserve" y="146.6064" clip-path="url(#clipPath2)" font-family="'Arial'" stroke="none">Person</text>
    </g>
    <g text-rendering="geometricPrecision" stroke-miterlimit="1.45" shape-rendering="geometricPrecision" transform="matrix(1,0,0,1,380,2)" stroke-linecap="butt">
      <ellipse rx="40" fill="none" ry="20" clip-path="url(#clipPath2)" cx="24" cy="144"/>
      <text x="18.668" y="148.3564" clip-path="url(#clipPath2)" font-family="'Arial'" stroke="none" font-weight="bold" xml:space="preserve">id</text>
      <line y2="150.7031" fill="none" x1="18.668" clip-path="url(#clipPath2)" x2="29.332" y1="150.7031"/>
    </g>
    <g text-rendering="geometricPrecision" stroke-miterlimit="1.45" shape-rendering="geometricPrecision" transform="matrix(1,0,0,1,380,2)" stroke-linecap="butt">
      <ellipse rx="40" fill="none" ry="20" clip-path="url(#clipPath2)" cx="94.5" cy="44.5"/>
      <text x="68.8213" xml:space="preserve" y="48.8564" clip-path="url(#clipPath2)" font-family="'Arial'" stroke="none">password</text>
    </g>
    <g text-rendering="geometricPrecision" stroke-miterlimit="1.45" shape-rendering="geometricPrecision" transform="matrix(1,0,0,1,380,2)" stroke-linecap="butt">
      <ellipse rx="40" fill="none" ry="20" clip-path="url(#clipPath2)" cx="34.75" cy="87.625"/>
      <text x="8.0693" xml:space="preserve" y="91.9814" clip-path="url(#clipPath2)" font-family="'Arial'" stroke="none">username</text>
    </g>
    <g text-rendering="geometricPrecision" stroke-miterlimit="1.45" shape-rendering="geometricPrecision" transform="matrix(1,0,0,1,380,2)" stroke-linecap="butt">
      <ellipse rx="40" fill="none" ry="20" clip-path="url(#clipPath2)" cx="189.5" cy="33.25"/>
      <text x="164.8262" xml:space="preserve" y="37.6064" clip-path="url(#clipPath2)" font-family="'Arial'" stroke="none">firstname</text>
    </g>
    <g text-rendering="geometricPrecision" stroke-miterlimit="1.45" shape-rendering="geometricPrecision" transform="matrix(1,0,0,1,380,2)" stroke-linecap="butt">
      <ellipse rx="40" fill="none" ry="20" clip-path="url(#clipPath2)" cx="247" cy="72.25"/>
      <text x="222.6543" xml:space="preserve" y="76.6064" clip-path="url(#clipPath2)" font-family="'Arial'" stroke="none">lastname</text>
    </g>
    <g text-rendering="geometricPrecision" stroke-miterlimit="1.45" shape-rendering="geometricPrecision" transform="matrix(1,0,0,1,380,2)" stroke-linecap="butt">
      <ellipse rx="40" fill="none" ry="20" clip-path="url(#clipPath2)" cx="294.5" cy="112.25"/>
      <text x="282.1631" xml:space="preserve" y="116.6064" clip-path="url(#clipPath2)" font-family="'Arial'" stroke="none">csav</text>
    </g>
    <g fill="rgb(255,204,0)" text-rendering="geometricPrecision" shape-rendering="geometricPrecision" transform="matrix(1,0,0,1,380,2)" stroke="rgb(255,204,0)">
      <path d="M591 123 L671 123 L671 163 L591 163 Z" stroke="none" clip-path="url(#clipPath2)"/>
    </g>
    <g text-rendering="geometricPrecision" stroke-miterlimit="1.45" shape-rendering="geometricPrecision" transform="matrix(1,0,0,1,380,2)" stroke-linecap="butt">
      <path fill="none" d="M591 123 L671 123 L671 163 L591 163 Z" clip-path="url(#clipPath2)"/>
      <text x="614.3242" xml:space="preserve" y="147.3564" clip-path="url(#clipPath2)" font-family="'Arial'" stroke="none">Group</text>
    </g>
    <g fill="rgb(204,255,204)" text-rendering="geometricPrecision" shape-rendering="geometricPrecision" transform="matrix(1,0,0,1,380,2)" stroke="rgb(204,255,204)">
      <path d="M374.5 115 L414.5 143 L374.5 171 L334.5 143 Z" stroke="none" clip-path="url(#clipPath2)"/>
    </g>
    <g text-rendering="geometricPrecision" stroke-miterlimit="1.45" shape-rendering="geometricPrecision" transform="matrix(1,0,0,1,380,2)" stroke-linecap="butt">
      <path fill="none" d="M374.5 115 L414.5 143 L374.5 171 L334.5 143 Z" clip-path="url(#clipPath2)"/>
      <text x="364.8262" xml:space="preserve" y="147.3564" clip-path="url(#clipPath2)" font-family="'Arial'" stroke="none">has</text>
    </g>
    <g fill="rgb(255,204,0)" text-rendering="geometricPrecision" shape-rendering="geometricPrecision" transform="matrix(1,0,0,1,380,2)" stroke="rgb(255,204,0)">
      <path d="M591 292 L671 292 L671 332 L591 332 Z" stroke="none" clip-path="url(#clipPath2)"/>
    </g>
    <g text-rendering="geometricPrecision" stroke-miterlimit="1.45" shape-rendering="geometricPrecision" transform="matrix(1,0,0,1,380,2)" stroke-linecap="butt">
      <path fill="none" d="M591 292 L671 292 L671 332 L591 332 Z" clip-path="url(#clipPath2)"/>
      <text x="616.9932" xml:space="preserve" y="316.3564" clip-path="url(#clipPath2)" font-family="'Arial'" stroke="none">Right</text>
    </g>
    <g text-rendering="geometricPrecision" stroke-miterlimit="1.45" shape-rendering="geometricPrecision" transform="matrix(1,0,0,1,380,2)" stroke-linecap="butt">
      <ellipse rx="40" fill="none" ry="20" clip-path="url(#clipPath2)" cx="576" cy="83"/>
      <text x="570.668" y="87.3564" clip-path="url(#clipPath2)" font-family="'Arial'" stroke="none" font-weight="bold" xml:space="preserve">id</text>
      <line y2="89.7031" fill="none" x1="570.668" clip-path="url(#clipPath2)" x2="581.332" y1="89.7031"/>
    </g>
    <g text-rendering="geometricPrecision" stroke-miterlimit="1.45" shape-rendering="geometricPrecision" transform="matrix(1,0,0,1,380,2)" stroke-linecap="butt">
      <ellipse rx="40" fill="none" ry="20" clip-path="url(#clipPath2)" cx="631" cy="378.5"/>
      <text x="625.668" y="382.8564" clip-path="url(#clipPath2)" font-family="'Arial'" stroke="none" font-weight="bold" xml:space="preserve">id</text>
      <line y2="385.2031" fill="none" x1="625.668" clip-path="url(#clipPath2)" x2="636.332" y1="385.2031"/>
    </g>
    <g text-rendering="geometricPrecision" stroke-miterlimit="1.45" shape-rendering="geometricPrecision" transform="matrix(1,0,0,1,380,2)" stroke-linecap="butt">
      <ellipse rx="40" fill="none" ry="20" clip-path="url(#clipPath2)" cx="521" cy="312"/>
      <text x="505.9912" xml:space="preserve" y="316.3564" clip-path="url(#clipPath2)" font-family="'Arial'" stroke="none">name</text>
    </g>
    <g fill="rgb(204,255,204)" text-rendering="geometricPrecision" shape-rendering="geometricPrecision" transform="matrix(1,0,0,1,380,2)" stroke="rgb(204,255,204)">
      <path d="M631 204 L671 232 L631 260 L591 232 Z" stroke="none" clip-path="url(#clipPath2)"/>
    </g>
    <g text-rendering="geometricPrecision" stroke-miterlimit="1.45" shape-rendering="geometricPrecision" transform="matrix(1,0,0,1,380,2)" stroke-linecap="butt">
      <path fill="none" d="M631 204 L671 232 L631 260 L591 232 Z" clip-path="url(#clipPath2)"/>
      <text x="621.3262" xml:space="preserve" y="236.3564" clip-path="url(#clipPath2)" font-family="'Arial'" stroke="none">has</text>
    </g>
    <g text-rendering="geometricPrecision" stroke-miterlimit="1.45" shape-rendering="geometricPrecision" transform="matrix(1,0,0,1,380,2)" stroke-linecap="butt">
      <ellipse rx="40" fill="none" ry="20" clip-path="url(#clipPath2)" cx="686" cy="83"/>
      <text x="670.9912" xml:space="preserve" y="87.3564" clip-path="url(#clipPath2)" font-family="'Arial'" stroke="none">name</text>
    </g>
    <g fill="rgb(255,204,0)" text-rendering="geometricPrecision" shape-rendering="geometricPrecision" transform="matrix(1,0,0,1,380,2)" stroke="rgb(255,204,0)">
      <path d="M85 497.25 L165 497.25 L165 537.25 L85 537.25 Z" stroke="none" clip-path="url(#clipPath2)"/>
    </g>
    <g text-rendering="geometricPrecision" stroke-miterlimit="1.45" shape-rendering="geometricPrecision" transform="matrix(1,0,0,1,380,2)" stroke-linecap="butt">
      <path fill="none" d="M85 497.25 L165 497.25 L165 537.25 L85 537.25 Z" clip-path="url(#clipPath2)"/>
      <text x="96.3154" xml:space="preserve" y="521.6064" clip-path="url(#clipPath2)" font-family="'Arial'" stroke="none">Equipment</text>
    </g>
    <g fill="rgb(255,204,0)" text-rendering="geometricPrecision" shape-rendering="geometricPrecision" transform="matrix(1,0,0,1,380,2)" stroke="rgb(255,204,0)">
      <path d="M-275 308.1875 L-166 308.1875 L-166 348.1875 L-275 348.1875 Z" stroke="none" clip-path="url(#clipPath2)"/>
    </g>
    <g text-rendering="geometricPrecision" stroke-miterlimit="1.45" shape-rendering="geometricPrecision" transform="matrix(1,0,0,1,380,2)" stroke-linecap="butt">
      <path fill="none" d="M-275 308.1875 L-166 308.1875 L-166 348.1875 L-275 348.1875 Z" clip-path="url(#clipPath2)"/>
      <text x="-265.8604" xml:space="preserve" y="332.5439" clip-path="url(#clipPath2)" font-family="'Arial'" stroke="none">EquipmentGroup</text>
    </g>
    <g fill="rgb(204,255,204)" text-rendering="geometricPrecision" shape-rendering="geometricPrecision" transform="matrix(1,0,0,1,380,2)" stroke="rgb(204,255,204)">
      <path d="M125 301.75 L165 329.75 L125 357.75 L85 329.75 Z" stroke="none" clip-path="url(#clipPath2)"/>
    </g>
    <g text-rendering="geometricPrecision" stroke-miterlimit="1.45" shape-rendering="geometricPrecision" transform="matrix(1,0,0,1,380,2)" stroke-linecap="butt">
      <path fill="none" d="M125 301.75 L165 329.75 L125 357.75 L85 329.75 Z" clip-path="url(#clipPath2)"/>
      <text x="111.6611" xml:space="preserve" y="334.1064" clip-path="url(#clipPath2)" font-family="'Arial'" stroke="none">rents</text>
    </g>
    <g text-rendering="geometricPrecision" stroke-miterlimit="1.45" shape-rendering="geometricPrecision" transform="matrix(1,0,0,1,380,2)" stroke-linecap="butt">
      <ellipse rx="40" fill="none" ry="20" clip-path="url(#clipPath2)" cx="194.25" cy="290"/>
      <text x="167.5664" xml:space="preserve" y="294.3564" clip-path="url(#clipPath2)" font-family="'Arial'" stroke="none">start_date</text>
    </g>
    <g text-rendering="geometricPrecision" stroke-miterlimit="1.45" shape-rendering="geometricPrecision" transform="matrix(1,0,0,1,380,2)" stroke-linecap="butt">
      <ellipse rx="40" fill="none" ry="20" clip-path="url(#clipPath2)" cx="194.25" cy="360"/>
      <text x="169.2246" xml:space="preserve" y="364.3564" clip-path="url(#clipPath2)" font-family="'Arial'" stroke="none">end_date</text>
    </g>
    <g fill="rgb(255,204,0)" text-rendering="geometricPrecision" shape-rendering="geometricPrecision" transform="matrix(1,0,0,1,380,2)" stroke="rgb(255,204,0)">
      <path d="M85 663 L165 663 L165 703 L85 703 Z" stroke="none" clip-path="url(#clipPath2)"/>
    </g>
    <g text-rendering="geometricPrecision" stroke-miterlimit="1.45" shape-rendering="geometricPrecision" transform="matrix(1,0,0,1,380,2)" stroke-linecap="butt">
      <path fill="none" d="M85 663 L165 663 L165 703 L85 703 Z" clip-path="url(#clipPath2)"/>
      <rect fill="none" x="88" width="74" height="34" y="666" clip-path="url(#clipPath2)"/>
      <text x="105.3213" xml:space="preserve" y="687.3564" clip-path="url(#clipPath2)" font-family="'Arial'" stroke="none">Manual</text>
    </g>
    <g fill="rgb(255,204,0)" text-rendering="geometricPrecision" shape-rendering="geometricPrecision" transform="matrix(1,0,0,1,380,2)" stroke="rgb(255,204,0)">
      <path d="M-265.1667 497.25 L-185.1667 497.25 L-185.1667 537.25 L-265.1667 537.25 Z" stroke="none" clip-path="url(#clipPath2)"/>
    </g>
    <g text-rendering="geometricPrecision" stroke-miterlimit="1.45" shape-rendering="geometricPrecision" transform="matrix(1,0,0,1,380,2)" stroke-linecap="butt">
      <path fill="none" d="M-265.1667 497.25 L-185.1667 497.25 L-185.1667 537.25 L-265.1667 537.25 Z" clip-path="url(#clipPath2)"/>
      <rect fill="none" x="-262.1667" width="74" height="34" y="500.25" clip-path="url(#clipPath2)"/>
      <text x="-254.1735" xml:space="preserve" y="521.6064" clip-path="url(#clipPath2)" font-family="'Arial'" stroke="none">Comments</text>
    </g>
    <g fill="rgb(204,255,204)" text-rendering="geometricPrecision" shape-rendering="geometricPrecision" transform="matrix(1,0,0,1,380,2)" stroke="rgb(204,255,204)">
      <path d="M-40.5 485.75 L4.5 517.25 L-40.5 548.75 L-85.5 517.25 Z" stroke="none" clip-path="url(#clipPath2)"/>
    </g>
    <g text-rendering="geometricPrecision" stroke-miterlimit="1.45" shape-rendering="geometricPrecision" transform="matrix(1,0,0,1,380,2)" stroke-linecap="butt">
      <path fill="none" d="M-40.5 485.75 L4.5 517.25 L-40.5 548.75 L-85.5 517.25 Z" clip-path="url(#clipPath2)"/>
      <path fill="none" d="M-40.5 489.412 L-0.7314 517.25 L-40.5 545.088 L-80.2686 517.25 Z" clip-path="url(#clipPath2)"/>
      <text x="-50.1738" xml:space="preserve" y="521.6064" clip-path="url(#clipPath2)" font-family="'Arial'" stroke="none">has</text>
    </g>
    <g fill="rgb(204,255,204)" text-rendering="geometricPrecision" shape-rendering="geometricPrecision" transform="matrix(1,0,0,1,380,2)" stroke="rgb(204,255,204)">
      <path d="M125 568.625 L170 600.125 L125 631.625 L80 600.125 Z" stroke="none" clip-path="url(#clipPath2)"/>
    </g>
    <g text-rendering="geometricPrecision" stroke-miterlimit="1.45" shape-rendering="geometricPrecision" transform="matrix(1,0,0,1,380,2)" stroke-linecap="butt">
      <path fill="none" d="M125 568.625 L170 600.125 L125 631.625 L80 600.125 Z" clip-path="url(#clipPath2)"/>
      <path fill="none" d="M125 572.287 L164.7686 600.125 L125 627.963 L85.2314 600.125 Z" clip-path="url(#clipPath2)"/>
      <text x="115.3262" xml:space="preserve" y="604.4814" clip-path="url(#clipPath2)" font-family="'Arial'" stroke="none">has</text>
    </g>
    <g fill="rgb(204,255,204)" text-rendering="geometricPrecision" shape-rendering="geometricPrecision" transform="matrix(1,0,0,1,380,2)" stroke="rgb(204,255,204)">
      <path d="M-40.5 399.75 L-0.5 427.75 L-40.5 455.75 L-80.5 427.75 Z" stroke="none" clip-path="url(#clipPath2)"/>
    </g>
    <g text-rendering="geometricPrecision" stroke-miterlimit="1.45" shape-rendering="geometricPrecision" transform="matrix(1,0,0,1,380,2)" stroke-linecap="butt">
      <path fill="none" d="M-40.5 399.75 L-0.5 427.75 L-40.5 455.75 L-80.5 427.75 Z" clip-path="url(#clipPath2)"/>
      <text x="-68.8447" xml:space="preserve" y="432.1064" clip-path="url(#clipPath2)" font-family="'Arial'" stroke="none">consists of</text>
    </g>
    <g text-rendering="geometricPrecision" stroke-miterlimit="1.45" shape-rendering="geometricPrecision" transform="matrix(1,0,0,1,380,2)" stroke-linecap="butt">
      <ellipse rx="40" fill="none" ry="20" clip-path="url(#clipPath2)" cx="225.25" cy="427.5"/>
      <text x="219.918" y="431.8564" clip-path="url(#clipPath2)" font-family="'Arial'" stroke="none" font-weight="bold" xml:space="preserve">id</text>
      <line y2="434.2031" fill="none" x1="219.918" clip-path="url(#clipPath2)" x2="230.582" y1="434.2031"/>
    </g>
    <g text-rendering="geometricPrecision" stroke-miterlimit="1.45" shape-rendering="geometricPrecision" transform="matrix(1,0,0,1,380,2)" stroke-linecap="butt">
      <ellipse rx="40" fill="none" ry="20" clip-path="url(#clipPath2)" cx="-315" cy="288.1875"/>
      <text x="-320.332" y="292.5439" clip-path="url(#clipPath2)" font-family="'Arial'" stroke="none" font-weight="bold" xml:space="preserve">id</text>
      <line y2="294.8906" fill="none" x1="-320.332" clip-path="url(#clipPath2)" x2="-309.668" y1="294.8906"/>
    </g>
    <g text-rendering="geometricPrecision" stroke-miterlimit="1.45" shape-rendering="geometricPrecision" transform="matrix(1,0,0,1,380,2)" stroke-linecap="butt">
      <ellipse rx="40" fill="none" ry="20" clip-path="url(#clipPath2)" cx="24.75" cy="580.375"/>
      <text x="9.7412" xml:space="preserve" y="584.7314" clip-path="url(#clipPath2)" font-family="'Arial'" stroke="none">name</text>
    </g>
    <g text-rendering="geometricPrecision" stroke-miterlimit="1.45" shape-rendering="geometricPrecision" transform="matrix(1,0,0,1,380,2)" stroke-linecap="butt">
      <ellipse rx="40" fill="none" ry="20" clip-path="url(#clipPath2)" cx="240" cy="595"/>
      <text x="219.3193" xml:space="preserve" y="599.3564" clip-path="url(#clipPath2)" font-family="'Arial'" stroke="none">location</text>
    </g>
    <g text-rendering="geometricPrecision" stroke-miterlimit="1.45" shape-rendering="geometricPrecision" transform="matrix(1,0,0,1,380,2)" stroke-linecap="butt">
      <ellipse rx="40" fill="none" ry="20" clip-path="url(#clipPath2)" cx="58.75" cy="407.75"/>
      <text x="32.7432" xml:space="preserve" y="412.1064" clip-path="url(#clipPath2)" font-family="'Arial'" stroke="none">max_time</text>
    </g>
    <g text-rendering="geometricPrecision" stroke-miterlimit="1.45" shape-rendering="geometricPrecision" transform="matrix(1,0,0,1,380,2)" stroke-linecap="butt">
      <ellipse rx="40" fill="none" ry="20" clip-path="url(#clipPath2)" cx="285.5" cy="460.125"/>
      <text x="272.4922" xml:space="preserve" y="464.4814" clip-path="url(#clipPath2)" font-family="'Arial'" stroke="none">state</text>
    </g>
    <g text-rendering="geometricPrecision" stroke-miterlimit="1.45" shape-rendering="geometricPrecision" transform="matrix(1,0,0,1,380,2)" stroke-linecap="butt">
      <ellipse rx="40" fill="none" ry="20" clip-path="url(#clipPath2)" cx="-277" cy="587.25"/>
      <text x="-282.332" y="591.6064" clip-path="url(#clipPath2)" font-family="'Arial'" stroke="none" font-weight="bold" xml:space="preserve">id</text>
      <line y2="593.9531" fill="none" x1="-282.332" clip-path="url(#clipPath2)" x2="-271.668" y1="593.9531"/>
    </g>
    <g text-rendering="geometricPrecision" stroke-miterlimit="1.45" shape-rendering="geometricPrecision" transform="matrix(1,0,0,1,380,2)" stroke-linecap="butt">
      <ellipse rx="40" fill="none" ry="20" clip-path="url(#clipPath2)" cx="-324.8333" cy="505.75"/>
      <text x="-334.1703" xml:space="preserve" y="510.1064" clip-path="url(#clipPath2)" font-family="'Arial'" stroke="none">title</text>
    </g>
    <g text-rendering="geometricPrecision" stroke-miterlimit="1.45" shape-rendering="geometricPrecision" transform="matrix(1,0,0,1,380,2)" stroke-linecap="butt">
      <ellipse rx="40" fill="none" ry="20" clip-path="url(#clipPath2)" cx="-256.75" cy="454"/>
      <text x="-276.4316" xml:space="preserve" y="458.3564" clip-path="url(#clipPath2)" font-family="'Arial'" stroke="none">content</text>
    </g>
    <g text-rendering="geometricPrecision" stroke-miterlimit="1.45" shape-rendering="geometricPrecision" transform="matrix(1,0,0,1,380,2)" stroke-linecap="butt">
      <ellipse rx="40" fill="none" ry="20" clip-path="url(#clipPath2)" cx="15" cy="714.25"/>
      <text x="9.668" y="718.6064" clip-path="url(#clipPath2)" font-family="'Arial'" stroke="none" font-weight="bold" xml:space="preserve">id</text>
      <line y2="720.9531" fill="none" x1="9.668" clip-path="url(#clipPath2)" x2="20.332" y1="720.9531"/>
    </g>
    <g text-rendering="geometricPrecision" stroke-miterlimit="1.45" shape-rendering="geometricPrecision" transform="matrix(1,0,0,1,380,2)" stroke-linecap="butt">
      <ellipse rx="40" fill="none" ry="20" clip-path="url(#clipPath2)" cx="101.9167" cy="753"/>
      <text x="92.5798" xml:space="preserve" y="757.3564" clip-path="url(#clipPath2)" font-family="'Arial'" stroke="none">title</text>
    </g>
    <g text-rendering="geometricPrecision" stroke-miterlimit="1.45" shape-rendering="geometricPrecision" transform="matrix(1,0,0,1,380,2)" stroke-linecap="butt">
      <ellipse rx="40" fill="none" ry="20" clip-path="url(#clipPath2)" cx="211.9583" cy="729.875"/>
      <text x="204.2884" xml:space="preserve" y="734.2314" clip-path="url(#clipPath2)" font-family="'Arial'" stroke="none">file</text>
    </g>
    <g text-rendering="geometricPrecision" stroke-miterlimit="1.45" shape-rendering="geometricPrecision" transform="matrix(1,0,0,1,380,2)" stroke-linecap="butt">
      <ellipse rx="40" fill="none" ry="20" clip-path="url(#clipPath2)" cx="-220.5" cy="258.1875"/>
      <text x="-235.5088" xml:space="preserve" y="262.5439" clip-path="url(#clipPath2)" font-family="'Arial'" stroke="none">name</text>
    </g>
    <g fill="rgb(204,255,204)" text-rendering="geometricPrecision" shape-rendering="geometricPrecision" transform="matrix(1,0,0,1,380,2)" stroke="rgb(204,255,204)">
      <path d="M-40.5 204 L-0.5 232 L-40.5 260 L-80.5 232 Z" stroke="none" clip-path="url(#clipPath2)"/>
    </g>
    <g text-rendering="geometricPrecision" stroke-miterlimit="1.45" shape-rendering="geometricPrecision" transform="matrix(1,0,0,1,380,2)" stroke-linecap="butt">
      <path fill="none" d="M-40.5 204 L-0.5 232 L-40.5 260 L-80.5 232 Z" clip-path="url(#clipPath2)"/>
      <text x="-60.1758" xml:space="preserve" y="236.3564" clip-path="url(#clipPath2)" font-family="'Arial'" stroke="none">creates</text>
    </g>
    <g fill="rgb(255,204,0)" text-rendering="geometricPrecision" shape-rendering="geometricPrecision" transform="matrix(1,0,0,1,380,2)" stroke="rgb(255,204,0)">
      <path d="M588.5 499.75 L678.5 499.75 L678.5 539.75 L588.5 539.75 Z" stroke="none" clip-path="url(#clipPath2)"/>
    </g>
    <g text-rendering="geometricPrecision" stroke-miterlimit="1.45" shape-rendering="geometricPrecision" transform="matrix(1,0,0,1,380,2)" stroke-linecap="butt">
      <path fill="none" d="M588.5 499.75 L678.5 499.75 L678.5 539.75 L588.5 539.75 Z" clip-path="url(#clipPath2)"/>
      <text x="594.8105" xml:space="preserve" y="524.1064" clip-path="url(#clipPath2)" font-family="'Arial'" stroke="none">OpeningHours</text>
    </g>
    <g text-rendering="geometricPrecision" stroke-miterlimit="1.45" shape-rendering="geometricPrecision" transform="matrix(1,0,0,1,380,2)" stroke-linecap="butt">
      <ellipse rx="40" fill="none" ry="20" clip-path="url(#clipPath2)" cx="633.5" cy="445"/>
      <text x="628.168" y="449.3564" clip-path="url(#clipPath2)" font-family="'Arial'" stroke="none" font-weight="bold" xml:space="preserve">id</text>
      <line y2="451.7031" fill="none" x1="628.168" clip-path="url(#clipPath2)" x2="638.832" y1="451.7031"/>
    </g>
    <g fill="rgb(255,204,0)" text-rendering="geometricPrecision" shape-rendering="geometricPrecision" transform="matrix(1,0,0,1,380,2)" stroke="rgb(255,204,0)">
      <path d="M334.5 499.75 L414.5 499.75 L414.5 539.75 L334.5 539.75 Z" stroke="none" clip-path="url(#clipPath2)"/>
    </g>
    <g text-rendering="geometricPrecision" stroke-miterlimit="1.45" shape-rendering="geometricPrecision" transform="matrix(1,0,0,1,380,2)" stroke-linecap="butt">
      <path fill="none" d="M334.5 499.75 L414.5 499.75 L414.5 539.75 L334.5 539.75 Z" clip-path="url(#clipPath2)"/>
      <text x="359.4912" xml:space="preserve" y="524.1064" clip-path="url(#clipPath2)" font-family="'Arial'" stroke="none">Place</text>
    </g>
    <g fill="rgb(204,255,204)" text-rendering="geometricPrecision" shape-rendering="geometricPrecision" transform="matrix(1,0,0,1,380,2)" stroke="rgb(204,255,204)">
      <path d="M263.5 491.75 L303.5 519.75 L263.5 547.75 L223.5 519.75 Z" stroke="none" clip-path="url(#clipPath2)"/>
    </g>
    <g text-rendering="geometricPrecision" stroke-miterlimit="1.45" shape-rendering="geometricPrecision" transform="matrix(1,0,0,1,380,2)" stroke-linecap="butt">
      <path fill="none" d="M263.5 491.75 L303.5 519.75 L263.5 547.75 L223.5 519.75 Z" clip-path="url(#clipPath2)"/>
      <text x="252.4961" xml:space="preserve" y="524.1064" clip-path="url(#clipPath2)" font-family="'Arial'" stroke="none">is at</text>
    </g>
    <g fill="rgb(204,255,204)" text-rendering="geometricPrecision" shape-rendering="geometricPrecision" transform="matrix(1,0,0,1,380,2)" stroke="rgb(204,255,204)">
      <path d="M508.25 491.75 L548.25 519.75 L508.25 547.75 L468.25 519.75 Z" stroke="none" clip-path="url(#clipPath2)"/>
    </g>
    <g text-rendering="geometricPrecision" stroke-miterlimit="1.45" shape-rendering="geometricPrecision" transform="matrix(1,0,0,1,380,2)" stroke-linecap="butt">
      <path fill="none" d="M508.25 491.75 L548.25 519.75 L508.25 547.75 L468.25 519.75 Z" clip-path="url(#clipPath2)"/>
      <text x="498.5762" xml:space="preserve" y="524.1064" clip-path="url(#clipPath2)" font-family="'Arial'" stroke="none">has</text>
    </g>
    <g fill="rgb(204,255,204)" text-rendering="geometricPrecision" shape-rendering="geometricPrecision" transform="matrix(1,0,0,1,380,2)" stroke="rgb(204,255,204)">
      <path d="M508.25 573.375 L548.25 601.375 L508.25 629.375 L468.25 601.375 Z" stroke="none" clip-path="url(#clipPath2)"/>
    </g>
    <g text-rendering="geometricPrecision" stroke-miterlimit="1.45" shape-rendering="geometricPrecision" transform="matrix(1,0,0,1,380,2)" stroke-linecap="butt">
      <path fill="none" d="M508.25 573.375 L548.25 601.375 L508.25 629.375 L468.25 601.375 Z" clip-path="url(#clipPath2)"/>
      <text x="498.5762" xml:space="preserve" y="605.7314" clip-path="url(#clipPath2)" font-family="'Arial'" stroke="none">has</text>
    </g>
    <g fill="rgb(255,204,0)" text-rendering="geometricPrecision" shape-rendering="geometricPrecision" transform="matrix(1,0,0,1,380,2)" stroke="rgb(255,204,0)">
      <path d="M334.5 663 L414.5 663 L414.5 703 L334.5 703 Z" stroke="none" clip-path="url(#clipPath2)"/>
    </g>
    <g text-rendering="geometricPrecision" stroke-miterlimit="1.45" shape-rendering="geometricPrecision" transform="matrix(1,0,0,1,380,2)" stroke-linecap="butt">
      <path fill="none" d="M334.5 663 L414.5 663 L414.5 703 L334.5 703 Z" clip-path="url(#clipPath2)"/>
      <rect fill="none" x="337.5" width="74" height="34" y="666" clip-path="url(#clipPath2)"/>
      <text x="363.8301" xml:space="preserve" y="687.3564" clip-path="url(#clipPath2)" font-family="'Arial'" stroke="none">Day</text>
    </g>
    <g text-rendering="geometricPrecision" stroke-miterlimit="1.45" shape-rendering="geometricPrecision" transform="matrix(1,0,0,1,380,2)" stroke-linecap="butt">
      <ellipse rx="40" fill="none" ry="20" clip-path="url(#clipPath2)" cx="322" cy="744"/>
      <text x="316.668" y="748.3564" clip-path="url(#clipPath2)" font-family="'Arial'" stroke="none" font-weight="bold" xml:space="preserve">id</text>
      <line y2="750.7031" fill="none" x1="316.668" clip-path="url(#clipPath2)" x2="327.332" y1="750.7031"/>
    </g>
    <g text-rendering="geometricPrecision" stroke-miterlimit="1.45" shape-rendering="geometricPrecision" transform="matrix(1,0,0,1,380,2)" stroke-linecap="butt">
      <ellipse rx="40" fill="none" ry="20" clip-path="url(#clipPath2)" cx="442.6667" cy="744"/>
      <text x="430.9977" xml:space="preserve" y="748.3564" clip-path="url(#clipPath2)" font-family="'Arial'" stroke="none">start</text>
    </g>
    <g text-rendering="geometricPrecision" stroke-miterlimit="1.45" shape-rendering="geometricPrecision" transform="matrix(1,0,0,1,380,2)" stroke-linecap="butt">
      <ellipse rx="40" fill="none" ry="20" clip-path="url(#clipPath2)" cx="487" cy="683"/>
      <text x="476.9893" xml:space="preserve" y="687.3564" clip-path="url(#clipPath2)" font-family="'Arial'" stroke="none">end</text>
    </g>
    <g fill="rgb(204,255,204)" text-rendering="geometricPrecision" shape-rendering="geometricPrecision" transform="matrix(1,0,0,1,380,2)" stroke="rgb(204,255,204)">
      <path d="M633.5 573.375 L673.5 601.375 L633.5 629.375 L593.5 601.375 Z" stroke="none" clip-path="url(#clipPath2)"/>
    </g>
    <g text-rendering="geometricPrecision" stroke-miterlimit="1.45" shape-rendering="geometricPrecision" transform="matrix(1,0,0,1,380,2)" stroke-linecap="butt">
      <path fill="none" d="M633.5 573.375 L673.5 601.375 L633.5 629.375 L593.5 601.375 Z" clip-path="url(#clipPath2)"/>
      <text x="623.8262" xml:space="preserve" y="605.7314" clip-path="url(#clipPath2)" font-family="'Arial'" stroke="none">has</text>
    </g>
    <g fill="rgb(255,204,0)" text-rendering="geometricPrecision" shape-rendering="geometricPrecision" transform="matrix(1,0,0,1,380,2)" stroke="rgb(255,204,0)">
      <path d="M593.5 663 L673.5 663 L673.5 703 L593.5 703 Z" stroke="none" clip-path="url(#clipPath2)"/>
    </g>
    <g text-rendering="geometricPrecision" stroke-miterlimit="1.45" shape-rendering="geometricPrecision" transform="matrix(1,0,0,1,380,2)" stroke-linecap="butt">
      <path fill="none" d="M593.5 663 L673.5 663 L673.5 703 L593.5 703 Z" clip-path="url(#clipPath2)"/>
      <rect fill="none" x="596.5" width="74" height="34" y="666" clip-path="url(#clipPath2)"/>
      <text x="613.4902" xml:space="preserve" y="687.3564" clip-path="url(#clipPath2)" font-family="'Arial'" stroke="none">Holiday</text>
    </g>
    <g text-rendering="geometricPrecision" stroke-miterlimit="1.45" shape-rendering="geometricPrecision" transform="matrix(1,0,0,1,380,2)" stroke-linecap="butt">
      <ellipse rx="40" fill="none" ry="20" clip-path="url(#clipPath2)" cx="576" cy="729.875"/>
      <text x="570.668" y="734.2314" clip-path="url(#clipPath2)" font-family="'Arial'" stroke="none" font-weight="bold" xml:space="preserve">id</text>
      <line y2="736.5781" fill="none" x1="570.668" clip-path="url(#clipPath2)" x2="581.332" y1="736.5781"/>
    </g>
    <g text-rendering="geometricPrecision" stroke-miterlimit="1.45" shape-rendering="geometricPrecision" transform="matrix(1,0,0,1,380,2)" stroke-linecap="butt">
      <ellipse rx="40" fill="none" ry="20" clip-path="url(#clipPath2)" cx="686" cy="753"/>
      <text x="659.3164" xml:space="preserve" y="757.3564" clip-path="url(#clipPath2)" font-family="'Arial'" stroke="none">start_date</text>
    </g>
    <g text-rendering="geometricPrecision" stroke-miterlimit="1.45" shape-rendering="geometricPrecision" transform="matrix(1,0,0,1,380,2)" stroke-linecap="butt">
      <ellipse rx="40" fill="none" ry="20" clip-path="url(#clipPath2)" cx="733.5" cy="706.75"/>
      <text x="708.4746" xml:space="preserve" y="711.1064" clip-path="url(#clipPath2)" font-family="'Arial'" stroke="none">end_date</text>
    </g>
    <g text-rendering="geometricPrecision" stroke-miterlimit="1.45" shape-rendering="geometricPrecision" transform="matrix(1,0,0,1,380,2)" stroke-linecap="butt">
      <ellipse rx="40" fill="none" ry="20" clip-path="url(#clipPath2)" cx="374.5" cy="445"/>
      <text x="369.168" y="449.3564" clip-path="url(#clipPath2)" font-family="'Arial'" stroke="none" font-weight="bold" xml:space="preserve">id</text>
      <line y2="451.7031" fill="none" x1="369.168" clip-path="url(#clipPath2)" x2="379.832" y1="451.7031"/>
    </g>
    <g text-rendering="geometricPrecision" stroke-miterlimit="1.45" shape-rendering="geometricPrecision" transform="matrix(1,0,0,1,380,2)" stroke-linecap="butt">
      <ellipse rx="40" fill="none" ry="20" clip-path="url(#clipPath2)" cx="373.5" cy="597.75"/>
      <text x="358.4912" xml:space="preserve" y="602.1064" clip-path="url(#clipPath2)" font-family="'Arial'" stroke="none">name</text>
    </g>
    <g text-rendering="geometricPrecision" stroke-miterlimit="1.45" shape-rendering="geometricPrecision" transform="matrix(1,0,0,1,380,2)" stroke-linecap="butt">
      <path fill="none" d="M85.0044 142.943 L64.0043 143.3069" clip-path="url(#clipPath2)"/>
    </g>
    <g text-rendering="geometricPrecision" stroke-miterlimit="1.45" shape-rendering="geometricPrecision" transform="matrix(1,0,0,1,380,2)" stroke-linecap="butt">
      <path fill="none" d="M100.6804 64.3077 L118.7657 122.2697" clip-path="url(#clipPath2)"/>
      <path fill="none" d="M60.243 103.055 L91.9575 122.2506" clip-path="url(#clipPath2)"/>
      <path fill="none" d="M136.826 122.2649 L178.1447 52.4395" clip-path="url(#clipPath2)"/>
      <path fill="none" d="M159.8784 122.2378 L220.7529 87.3098" clip-path="url(#clipPath2)"/>
      <path fill="none" d="M165.0162 135.1675 L256.7866 118.9249" clip-path="url(#clipPath2)"/>
      <path fill="none" d="M164.9894 142.3702 L334.6797 142.8803" clip-path="url(#clipPath2)"/>
      <text x="237.4131" xml:space="preserve" y="177.339" clip-path="url(#clipPath2)" font-family="sans-serif" stroke="none">(1,1)</text>
      <path fill="none" d="M414.4842 143 L591.0112 143" clip-path="url(#clipPath2)"/>
      <text x="491.415" xml:space="preserve" y="177.7139" clip-path="url(#clipPath2)" font-family="sans-serif" stroke="none">(0,*)</text>
      <path fill="none" d="M592.6772 101.1934 L612.6807 123.0153" clip-path="url(#clipPath2)"/>
      <path fill="none" d="M631 358.5305 L631 332.039" clip-path="url(#clipPath2)"/>
      <path fill="none" d="M560.9878 312 L590.9686 312" clip-path="url(#clipPath2)"/>
      <path fill="none" d="M631 163.0337 L631 204.0161" clip-path="url(#clipPath2)"/>
      <text x="589.665" xml:space="preserve" y="188.2139" clip-path="url(#clipPath2)" font-family="sans-serif" stroke="none">(0,*)</text>
      <path fill="none" d="M631 291.9609 L631 260.0189" clip-path="url(#clipPath2)"/>
      <text x="649.665" xml:space="preserve" y="280.7139" clip-path="url(#clipPath2)" font-family="sans-serif" stroke="none">(0,*)</text>
      <path fill="none" d="M649.3423 122.9902 L669.3358 101.1792" clip-path="url(#clipPath2)"/>
      <path fill="none" d="M125 162.2543 L125 301.7386" clip-path="url(#clipPath2)"/>
      <text x="83.665" xml:space="preserve" y="236.7139" clip-path="url(#clipPath2)" font-family="sans-serif" stroke="none">(0,*)</text>
      <path fill="none" d="M125 497.2457 L125 357.7614" clip-path="url(#clipPath2)"/>
      <text x="142.6631" xml:space="preserve" y="432.2139" clip-path="url(#clipPath2)" font-family="sans-serif" stroke="none">(0,1)</text>
      <path fill="none" d="M146.9449 317.1534 L167.9874 305.0749" clip-path="url(#clipPath2)"/>
      <path fill="none" d="M149.65 340.5177 L164.1537 346.8532" clip-path="url(#clipPath2)"/>
      <path fill="none" d="M-185.1766 517.25 L-85.5348 517.25" clip-path="url(#clipPath2)"/>
      <text x="-147.6702" xml:space="preserve" y="551.9639" clip-path="url(#clipPath2)" font-family="sans-serif" stroke="none">(1,1)</text>
      <path fill="none" d="M4.4711 517.25 L85.0101 517.25" clip-path="url(#clipPath2)"/>
      <text x="32.4131" xml:space="preserve" y="551.9639" clip-path="url(#clipPath2)" font-family="sans-serif" stroke="none">(0,8)</text>
      <path fill="none" d="M125 662.9692 L125 631.6392" clip-path="url(#clipPath2)"/>
      <text x="142.6631" xml:space="preserve" y="652.0264" clip-path="url(#clipPath2)" font-family="sans-serif" stroke="none">(1,1)</text>
      <path fill="none" d="M125 568.6017 L125 537.2341" clip-path="url(#clipPath2)"/>
      <text x="143.665" xml:space="preserve" y="557.6514" clip-path="url(#clipPath2)" font-family="sans-serif" stroke="none">(0,*)</text>
      <path fill="none" d="M88.0292 497.2567 L-17.9384 439.951" clip-path="url(#clipPath2)"/>
      <text x="48.7262" xml:space="preserve" y="452.7401" clip-path="url(#clipPath2)" font-family="sans-serif" stroke="none">(0,*)</text>
      <path fill="none" d="M-62.8462 415.3898 L-184.3582 348.1784" clip-path="url(#clipPath2)"/>
      <text x="-118.1572" xml:space="preserve" y="361.4959" clip-path="url(#clipPath2)" font-family="sans-serif" stroke="none">(2,*)</text>
      <path fill="none" d="M147.3458 497.2447 L205.7549 444.9532" clip-path="url(#clipPath2)"/>
      <path fill="none" d="M-284.4767 301.1074 L-267.764 308.1815" clip-path="url(#clipPath2)"/>
      <path fill="none" d="M93.2558 537.2385 L49.6034 564.7254" clip-path="url(#clipPath2)"/>
      <path fill="none" d="M216.2195 578.9223 L154.5973 537.2604" clip-path="url(#clipPath2)"/>
      <path fill="none" d="M70.347 426.9178 L112.8979 497.2473" clip-path="url(#clipPath2)"/>
      <path fill="none" d="M252.9376 471.7146 L165.0117 503.0091" clip-path="url(#clipPath2)"/>
      <path fill="none" d="M-263.1052 568.4854 L-239.9679 537.2388" clip-path="url(#clipPath2)"/>
      <path fill="none" d="M-285.8524 510.2478 L-265.1398 512.6377" clip-path="url(#clipPath2)"/>
      <path fill="none" d="M-235.1444 497.2682 L-247.0655 473.3946" clip-path="url(#clipPath2)"/>
      <path fill="none" d="M49.7778 704.3699 L85.0015 694.3632" clip-path="url(#clipPath2)"/>
      <path fill="none" d="M108.4201 733.2783 L118.4021 703.0082" clip-path="url(#clipPath2)"/>
      <path fill="none" d="M184.7414 715.2037 L162.0758 702.9858" clip-path="url(#clipPath2)"/>
      <path fill="none" d="M-220.5 278.1826 L-220.5 308.2148" clip-path="url(#clipPath2)"/>
      <path fill="none" d="M-183.1025 308.2032 L-63.1646 244.1114" clip-path="url(#clipPath2)"/>
      <text x="-118.8489" xml:space="preserve" y="306.0038" clip-path="url(#clipPath2)" font-family="sans-serif" stroke="none">(1,1)</text>
      <path fill="none" d="M-17.9943 219.7952 L88.0994 162.2611" clip-path="url(#clipPath2)"/>
      <text x="48.7931" xml:space="preserve" y="216.271" clip-path="url(#clipPath2)" font-family="sans-serif" stroke="none">(0,*)</text>
      <path fill="none" d="M633.5 464.965 L633.5 499.7674" clip-path="url(#clipPath2)"/>
      <path fill="none" d="M165.0013 517.972 L224.4949 519.046" clip-path="url(#clipPath2)"/>
      <text x="181.9131" xml:space="preserve" y="553.2188" clip-path="url(#clipPath2)" font-family="sans-serif" stroke="none">(1,1)</text>
      <path fill="none" d="M303.5261 519.75 L334.4732 519.75" clip-path="url(#clipPath2)"/>
      <text x="308.165" xml:space="preserve" y="554.4639" clip-path="url(#clipPath2)" font-family="sans-serif" stroke="none">(0,*)</text>
      <path fill="none" d="M414.5009 519.75 L468.2876 519.75" clip-path="url(#clipPath2)"/>
      <text x="429.0381" xml:space="preserve" y="554.4639" clip-path="url(#clipPath2)" font-family="sans-serif" stroke="none">(1,1)</text>
      <path fill="none" d="M548.2774 519.75 L588.5168 519.75" clip-path="url(#clipPath2)"/>
      <text x="555.25" xml:space="preserve" y="494.4639" clip-path="url(#clipPath2)" font-family="sans-serif" stroke="none">(1,1)</text>
      <path fill="none" d="M602.8297 539.7378 L528.9624 587.8768" clip-path="url(#clipPath2)"/>
      <text x="581.0518" xml:space="preserve" y="586.4126" clip-path="url(#clipPath2)" font-family="sans-serif" stroke="none">(7,7)</text>
      <path fill="none" d="M407.2518 663.0122 L486.8717 614.4218" clip-path="url(#clipPath2)"/>
      <path fill="none" d="M357.2991 702.9858 L337.8053 725.6357" clip-path="url(#clipPath2)"/>
      <path fill="none" d="M396.8339 702.9858 L423.1743 726.5569" clip-path="url(#clipPath2)"/>
      <path fill="none" d="M414.5177 683 L446.9719 683" clip-path="url(#clipPath2)"/>
      <path fill="none" d="M633.5 539.7178 L633.5 573.3463" clip-path="url(#clipPath2)"/>
      <text x="652.165" xml:space="preserve" y="561.2764" clip-path="url(#clipPath2)" font-family="sans-serif" stroke="none">(0,*)</text>
      <path fill="none" d="M633.5 629.3937 L633.5 662.9762" clip-path="url(#clipPath2)"/>
      <text x="591.1631" xml:space="preserve" y="650.9014" clip-path="url(#clipPath2)" font-family="sans-serif" stroke="none">(1,1)</text>
      <path fill="none" d="M596.9167 712.8233 L608.9564 703.0084" clip-path="url(#clipPath2)"/>
      <path fill="none" d="M671.9778 734.3037 L648.5116 703.0154" clip-path="url(#clipPath2)"/>
      <path fill="none" d="M673.5146 692.5035 L697.3857 698.1729" clip-path="url(#clipPath2)"/>
      <path fill="none" d="M374.5 499.785 L374.5 464.9826" clip-path="url(#clipPath2)"/>
      <path fill="none" d="M374.2437 539.7451 L373.7567 577.7258" clip-path="url(#clipPath2)"/>
    </g>
  </g>
</svg>
